<svg xmlns="http://www.w3.org/2000/svg" width="944.76" height="497.938" viewBox="0 0 944.76 497.938"><g fill="#FFF"><path d="M386.967 237.382c1.48.322 2.343.74 2.603 1.252.256.515.162 1.076-.288 1.686-.45.61-1.092 1.237-1.93 1.877-.834.643-1.636 1.188-2.403 1.637-.71-.127-1.463-.014-2.267.337-.804.355-1.557.757-2.264 1.207-.836-.13-1.686-.194-2.553-.194h-2.647c-.45 1.284-.948 2.52-1.49 3.708-.547 1.19-1.27 2.2-2.167 3.035-.062.318.016.607.24.865.225.255.4.546.528.864-.705.578-1.204 1.19-1.49 1.828-.29.645-.48 1.315-.58 2.02-.095.708-.16 1.384-.188 2.02-.033.645-.18 1.253-.436 1.83-.578.257-1.092.58-1.54.962-.45.388-.884.77-1.3 1.156-.42.387-.883.725-1.396 1.014-.518.285-1.155.496-1.928.625-1.35-.448-2.44-.884-3.272-1.302-.834-.416-1.797-.88-2.89-1.396-.897-1.154-1.396-2.375-1.49-3.66-.1-1.282.047-2.565.432-3.854.385-1.282.897-2.502 1.54-3.66.642-1.15 1.25-2.18 1.83-3.08.448-.896.833-1.7 1.155-2.405-1.48-.064-2.97-.048-4.48.047-1.508.096-3.062.24-4.67.433-.384 1.092-.852 2.135-1.395 3.13-.547.997-1.205 1.876-1.978 2.646-.062.32.032.61.29.865.255.258.448.545.577.865-.707.58-1.202 1.19-1.49 1.83-.29.64-.482 1.302-.58 1.976-.1.675-.18 1.35-.24 2.022-.063.67-.227 1.27-.478 1.78-.58.255-1.076.576-1.495.958-.42.39-.853.772-1.3 1.155-.45.387-.933.727-1.444 1.014-.514.287-1.152.496-1.925.627-1.348-.446-2.424-.882-3.226-1.3-.806-.416-1.78-.884-2.94-1.396-.898-1.092-1.38-2.297-1.442-3.61s.098-2.614.48-3.9c.385-1.28.896-2.503 1.54-3.656.643-1.154 1.252-2.18 1.83-3.082-.77 0-1.558.014-2.358.045-.805.035-1.59.084-2.356.146-.965-.513-1.672-1.155-2.12-1.926-.45-.772-.754-1.59-.914-2.457-.162-.868-.228-1.75-.194-2.648.032-.898.048-1.796.048-2.697.257-.704.69-1.25 1.303-1.635.605-.386 1.266-.74 1.973-1.06 1.926-.062 3.66-.144 5.2-.24 1.54-.095 3.048-.208 4.523-.337.062-.127.11-.29.146-.48.03-.193.08-.35.145-.48-.062-.898.146-2.07.626-3.514.482-1.445 1.044-3 1.688-4.67-1.09.192-2.02.352-2.79.48-.772.13-1.414.26-1.928.386-1.54-.063-2.68-.29-3.42-.674-.738-.386-1.3-.85-1.687-1.396-.385-.545-.643-1.155-.77-1.83-.13-.673-.32-1.396-.578-2.165.514-.514.85-1.22 1.01-2.12.16-.898-.047-1.572-.626-2.023.644-.127 1.22-.496 1.732-1.106.515-.61.705-1.074.58-1.396 1.986-.32 4.044-.496 6.16-.53 2.12-.03 4.14-.144 6.066-.336.705-1.284 1.33-2.97 1.878-5.055.545-2.086 1.154-4.172 1.83-6.26.673-2.084 1.506-3.93 2.502-5.536.995-1.602 2.264-2.566 3.804-2.886 1.926 1.798 3.386 3.707 4.383 5.728.993 2.024 1.812 4.416 2.454 7.175-.193.642-.48 1.444-.87 2.407l-1.35 3.37c1.54-.06 3.08-.095 4.62-.095 1.543 0 3.05-.03 4.526-.097.578-1.41 1.122-3.11 1.64-5.103.514-1.99 1.104-3.93 1.778-5.826.677-1.89 1.493-3.545 2.456-4.958.966-1.41 2.184-2.278 3.66-2.6 1.86 1.733 3.31 3.627 4.334 5.68 1.024 2.056 1.83 4.463 2.404 7.223-.192.64-.498 1.49-.912 2.55-.42 1.06-.885 2.264-1.396 3.61 1.023.065 2.02.18 2.983.338.963.16 1.828.385 2.6.675.77.288 1.38.673 1.83 1.153.446.482.703 1.107.77 1.88 1.155.128 1.94.352 2.36.672.417.322.64.707.675 1.156.03.45-.082.948-.337 1.493-.257.547-.48 1.076-.673 1.59-1.8.77-3.966 1.364-6.5 1.78-2.536.418-5.248.723-8.138.915-.71 2.055-1.316 3.898-1.83 5.537-.52 1.636-.804 2.872-.867 3.706h4.235c-.063.578.16.996.674 1.252.515.256 1.06.466 1.638.625.58.16 1.092.353 1.542.577.45.23.58.63.39 1.207l.005.008v-.003zm-31.87-3.082c1.283-.13 2.792-.224 4.524-.29 1.733-.062 3.53-.128 5.397-.192.126-1.026.464-2.342 1.01-3.947.547-1.602 1.17-3.27 1.878-5.004h-5.44c-1.7 0-3.258.032-4.67.096-.707 1.99-1.3 3.772-1.78 5.345-.48 1.574-.757 2.745-.82 3.514l-.098.48z"/><path d="M396.116 221.494c.192-.962.32-1.75.385-2.36.064-.61-.16-1.267-.672-1.972.255-1.027.464-1.83.626-2.408.16-.578.176-1.38.048-2.407.58-1.67 1.46-3.08 2.65-4.237 1.184-1.155 2.482-2.133 3.895-2.937 1.41-.802 2.89-1.476 4.43-2.022 1.542-.543 2.985-1.01 4.334-1.394 0-.254-.13-.384-.385-.384s-.32-.158-.19-.48c3.466-.64 6.946-1.572 10.445-2.792 3.497-1.22 7.074-2.31 10.734-3.273 3.658-.963 7.414-1.556 11.267-1.782 3.855-.222 7.898.275 12.137 1.494.255.77.606 1.51 1.06 2.213.448.708.914 1.397 1.396 2.07.48.675.914 1.334 1.3 1.975.385.643.61 1.317.674 2.022.77.707 1.396 1.46 1.877 2.262.48.802.562 1.876.24 3.224-.707.515-1.444 1.028-2.215 1.54-.772.516-1.574.998-2.407 1.446-2.888-.705-5.777-.962-8.667-.77-2.89.19-5.488.417-7.8.674-.706-.772-1.54-1.14-2.503-1.108-.966.033-1.977.194-3.033.482-1.06.288-2.104.577-3.13.867-1.026.29-1.988.37-2.888.24-.708.643-1.638 1.076-2.795 1.3-1.154.224-2.375.4-3.66.528-.062.323 0 .545.192.674.193.13.224.384.097.77.446.58 1.06.98 1.83 1.203.77.227 1.557.435 2.357.627.8.194 1.522.466 2.166.818.643.354 1.062.915 1.252 1.686 1.157.065 2.15.37 2.983.916.835.545 1.54 1.204 2.12 1.972.576.772.994 1.59 1.25 2.457.255.865.353 1.652.288 2.36.255.64.53.895.818.77.29-.13.626.03 1.013.48.254.96.85 1.972 1.78 3.032s1.65 2.2 2.166 3.418c.13 1.926.24 3.66.336 5.2.1 1.54-.176 3.05-.817 4.526-1.09 2.826-2.666 5.36-4.72 7.605-2.054 2.25-4.38 4.226-6.98 5.923-2.603 1.7-5.346 3.177-8.233 4.43-2.887 1.25-5.745 2.296-8.568 3.13-.26-.063-.563-.063-.916 0-.353.062-.433-.13-.24-.58-.576.517-1.235.834-1.974.966-.74.128-1.54.175-2.407.144-.863-.03-1.73-.08-2.6-.145-.865-.065-1.718-.032-2.55.095-.516-.516-.98-1.024-1.397-1.54-.42-.515-.757-1.118-1.013-1.828-.32-.062-.465-.27-.433-.625.03-.354-.113-.53-.435-.53 0-.253.03-.445.098-.574l.19-.386c.257-.192.37-.338.34-.435-.035-.098-.132-.19-.29-.286-.162-.1-.322-.21-.48-.34-.162-.13-.208-.29-.146-.48.32-.576.434-1.27.337-2.068-.098-.803-.18-1.623-.24-2.457-.064-.834 0-1.62.19-2.36.194-.734.737-1.36 1.638-1.874 2.633.258 5.12.13 7.464-.386 2.343-.515 4.558-1.222 6.644-2.12 2.086-.9 4.077-1.88 5.97-2.938 1.896-1.06 3.737-2.037 5.537-2.937.193-.643.496-1.19.914-1.64.418-.447.852-.88 1.3-1.3.45-.415.867-.865 1.254-1.347.39-.48.677-1.075.868-1.782.063-.254.063-.447 0-.577-.062-.128-.16-.24-.288-.337-.13-.097-.258-.208-.386-.337-.13-.128-.193-.32-.193-.578-.19-.065-.366-.13-.526-.195-.16-.062-.31-.096-.438-.096-1.67-.833-3.436-1.54-5.295-2.12-1.86-.577-3.436-1.22-4.72-1.925-.77.515-1.54.643-2.31.386-.772-.255-1.702-.512-2.796-.77-2.694-.127-5.244-.385-7.652-.77-2.405-.385-4.733-1.06-6.98-2.022-.13-.385-.288-.722-.48-1.01-.19-.29-.642-.368-1.35-.24-.447-.642-.912-1.235-1.394-1.782-.48-.542-.914-1.17-1.3-1.876v-.006h.006-.004z"/><path d="M505.405 210.71c.06.45.078.788.047 1.01-.033.227-.064.435-.096.627-.033.192-.05.4-.05.626 0 .225.062.563.193 1.01-1.35 2.184-2.905 3.676-4.67 4.478-1.77.805-3.68 1.383-5.73 1.735-2.056.354-4.154.722-6.306 1.107-2.148.386-4.287 1.22-6.406 2.504-.835-.32-1.59-.32-2.26 0-.677.323-1.657.42-2.94.29-.386.385-.865.66-1.443.818-.576.162-1.154.337-1.73.53.256.578.37 1.172.338 1.78-.032.612.05 1.108.24 1.493 2.246.193 4.732.162 7.46-.095 2.73-.256 5.41-.418 8.04-.483.064.322.033.53-.096.625-.13.096-.158.272-.096.53.447.322.898.72 1.35 1.203.448.482.897.948 1.35 1.396.446.45.915.82 1.397 1.108.48.29 1.045.402 1.688.337.26.513.437 1.075.53 1.685.097.61.015 1.236-.24 1.877-1.03.707-2.058 1.43-3.08 2.166-1.03.74-2.105 1.396-3.23 1.974-1.122.578-2.31 1.044-3.56 1.396-1.255.354-2.65.497-4.19.434h-.722c-.16 0-.37-.097-.625-.29-.52.322-1.238.418-2.166.29-.936-.13-1.655-.034-2.167.286-.707-.32-1.56-.463-2.556-.433-1 .033-1.877-.08-2.647-.337-1.028 1.35-1.958 2.793-2.792 4.332-.834 1.54-1.574 3.18-2.215 4.913 2.183.323 3.994.45 5.438.39 1.446-.063 2.81-.18 4.096-.34 1.282-.16 2.6-.32 3.946-.48 1.35-.16 3.05-.208 5.104-.147 1.28-.703 2.806-1.17 4.57-1.396 1.767-.224 3.388-.592 4.86-1.107.515.193.966.528 1.35 1.01.387.48.755.93 1.106 1.35.354.417.725.784 1.106 1.104.386.322.867.45 1.445.385.253.258.43.56.526.914.098.354.176.69.24 1.012.062.322.174.596.338.818.156.227.435.307.816.24-.963 2.118-2.07 3.74-3.32 4.86-1.254 1.123-2.682 1.978-4.284 2.555-1.605.576-3.388 1.025-5.345 1.348-1.958.32-4.126.705-6.5 1.154-.58.13-1.06.108-1.443-.046-.385-.16-.836-.242-1.35-.242-1.478.322-3.24.61-5.294.87-2.058.253-4.142.35-6.263.286-2.117-.063-4.14-.34-6.063-.817-1.926-.484-3.5-1.332-4.72-2.556-.516-.446-.853-.98-1.01-1.588-.164-.61-.597-1.077-1.3-1.397-.065-.834-.193-1.768-.387-2.793-.192-1.03-.387-2.104-.578-3.23-.194-1.12-.337-2.228-.436-3.322-.098-1.088-.047-2.083.146-2.983.193-.963.595-1.83 1.205-2.6.607-.77.815-1.604.625-2.503.32-.065.513-.242.58-.53.06-.29.317-.402.77-.337.385-1.155.802-2.247 1.252-3.274.447-1.026.914-2.022 1.396-2.985.48-.963.964-1.94 1.444-2.937.48-.994.945-2.102 1.396-3.322-.897-.832-1.557-1.748-1.974-2.744-.418-.993-.723-1.987-.914-2.984-.193-.994-.354-2.022-.48-3.08-.13-1.06-.353-2.134-.673-3.226.642-.963 1.427-1.75 2.36-2.36.928-.61 1.937-1.107 3.03-1.492 1.092-.386 2.277-.706 3.562-.964 1.282-.255 2.63-.545 4.044-.866 2.566-.833 4.863-1.476 6.885-1.926 2.02-.448 4.01-.82 5.97-1.107 1.957-.29 3.996-.562 6.113-.82 2.115-.254 4.525-.64 7.22-1.154.58.578 1.122.867 1.64.867.255-.577.56-.753.915-.53.35.227.492.05.433-.528.64 1.09 1.46 2.005 2.456 2.742.996.74 2.104 1.367 3.324 1.88v.005h.005zm23.11 53.15c-1.8.58-3.758 1.153-5.875 1.732-2.114.58-4.235.867-6.354.867-3.21 0-5.746-.806-7.605-2.406-.315-.705-.606-1.188-.86-1.445-.193-.257-.373-.53-.53-.818-.16-.29-.274-.688-.34-1.205-.77-.896-1.38-1.94-1.827-3.127-.45-1.187-.757-2.407-.915-3.66-.16-1.253-.19-2.52-.096-3.804.095-1.284.302-2.502.624-3.66.13-.254.21-.512.237-.77.03-.254.078-.544.146-.865.255-1.023.53-2.02.818-2.984.287-.962.688-1.796 1.205-2.503-.26-.578-.26-1.22 0-1.927.257-.705.543-1.348.863-1.925.898-2.437 1.652-4.51 2.264-6.21.608-1.7 1.233-3.385 1.877-5.054 1.09-2.89 2.12-5.745 3.08-8.57.96-2.824 1.83-5.874 2.604-9.147.513-.32.897-.546 1.155-.675.385-.13.702-.224.963-.29 1.15.58 2.504 1.142 4.047 1.687 1.54.546 2.824.82 3.852.82.515.32.832.562.963.722.128.162.256.306.385.434.705.835 1.313 1.686 1.827 2.55.517.866.677 2.007.482 3.42-.385.577-.674.865-.87.865-.314 1.286-.655 2.376-1.007 3.274-.355.9-.723 1.798-1.105 2.697-.45.963-.866 1.926-1.254 2.89-.385.962-.707 2.15-.963 3.562-.258.323-.434.61-.526.867l-.337.865c-.13.323-.277.66-.438 1.01-.16.354-.398.66-.723.915-.192 1.67-.495 3.018-.913 4.045s-.856 2.054-1.302 3.08c-.77 1.862-1.46 3.723-2.07 5.584-.61 1.862-.98 3.98-1.105 6.353.32-.127.626-.19.915-.19h.818c.58 0 1.252.098 2.02.288 1.93-1.023 4.028-1.637 6.31-1.83 2.275-.192 4.54-.32 6.788-.384h2.7c.895 0 1.73-.065 2.5-.194.576.322.943.497 1.105.53.16.032.4.046.724.046.448 0 .833.034 1.153.098.77.708 1.508 1.22 2.215 1.542.703.323 1.445.61 2.215.87.703.253 1.396.524 2.07.815.674.287 1.33.69 1.978 1.203l.672 4.14c.444.58.643.964.58 1.155 0 .515-.136.9-.388 1.154l.192 1.06c-.965.193-1.623.416-1.978.675-.354.258-.687.545-1.01.864-.517.063-.882.098-1.105.098h-.624c-.9 0-1.99.16-3.274.48-1.73-.58-3.526-.868-5.39-.868-.71 0-1.448.037-2.218.1l-2.312.19c-.77.132-1.56.23-2.36.288-.802.066-1.617.097-2.45.097l-2.222.58-.005-.006zm40.632-2.214c-.388 2.184-1.48 3.69-3.273 4.526-.836.062-1.46.03-1.88-.1-.417-.13-.854-.285-1.298-.48-.578-.255-1.095-.417-1.54-.48l-1.062-.77c-.13-.32-.287-.644-.48-.966-.192-.318-.417-.643-.673-.963-.516-.645-1.026-1.443-1.54-2.406-.386-1.86-.447-3.418-.19-4.67.253-1.252.575-2.488.96-3.71.13-.385.256-.784.387-1.202.13-.416.255-.82.386-1.208-1.67-.896-2.92-2.18-3.753-3.85-.834-1.67-1.314-3.275-1.445-4.816.193-1.22.55-2.197 1.062-2.935.517-.737 1.105-1.332 1.78-1.78.673-.45 1.378-.803 2.118-1.06.732-.256 1.46-.482 2.166-.674l1.25.48c.58.58 1.155 1.03 1.733 1.35.446-.192.754-.497.914-.915.16-.416.307-.882.436-1.396.193-.58.4-1.158.625-1.737.225-.577.498-1.155.82-1.732-.064-.833.062-1.603.385-2.31-.45-.32-.932-.513-1.443-.58-.13 0-.45-.062-.963-.19-.77-.58-1.3-1.077-1.59-1.494s-.562-.82-.82-1.204c-.385-.833-.867-1.508-1.44-2.022l-.966-.673.48-.96c.13-.13.19-.29.19-.484 0-.192-.127-.48-.386-.866-.13-.706-.13-1.188 0-1.445l.195-.963c.513-.708.77-1.09.77-1.157l.866-.868c1.28-.32 2.554-.688 3.806-1.106 1.247-.418 2.517-.85 3.8-1.3 1.22-.386 2.457-.786 3.707-1.205 1.25-.418 2.52-.786 3.804-1.108.45-.32.93-.53 1.445-.625.513-.097.993-.176 1.44-.24.387-.063.74-.112 1.062-.145.32-.03.548-.144.675-.337.77-.254 1.668-.544 2.693-.865 1.604-.448 3.725-.947 6.354-1.492 2.633-.545 5.586-.98 8.857-1.3l1.64-.096c.32.064.643.08.963.048s.644-.048.963-.048c2.89 0 4.72.866 5.49 2.6.578.323 1.09.674 1.54 1.06.448.385.866.77 1.25 1.155.192.258.4.482.628.674.22.193.396.323.527.385 1.09 1.67 1.443 3.148 1.06 4.43-.58.835-1.31 1.316-2.213 1.444l-1.062.577c-.702-.062-1.233-.095-1.588-.095h-1.104c-1.606 0-3.468.096-5.585.29-2.12.19-4.285.465-6.5.816-2.215.355-4.353.79-6.404 1.3-2.056.517-3.853 1.06-5.392 1.64l-1.732.866c-.45.707-.707 1.27-.77 1.686-.064.418-.13.82-.193 1.204-.064.256-.11.514-.146.77-.03.257-.08.545-.144.866-1.094 1.35-1.64 2.954-1.64 4.814-.448.77-.737 1.332-.866 1.684-.127.354-.127.788 0 1.3 1.22.515 2.375.707 3.467.578 1.092-.13 2.184-.29 3.273-.48 1.48-.257 3-.483 4.575-.674 1.566-.194 3.19-.29 4.86-.29h3.08l-.77.77.48 1.35c.386.193.657.322.816.384.16.065.342.162.53.29l.48.868c.255.13.495.35.72.673.23.322.373.802.44 1.443l-3.948 5.585-1.35.385c-1.093-.063-2.056.064-2.888.385-.45.13-.9.24-1.35.337-.45.097-.933.144-1.445.144-1.284.257-2.358.45-3.226.58-.867.127-1.75.254-2.646.382-1.154.128-2.28.305-3.37.528-1.093.225-2.118.53-3.08.915h-1.35c-.518 0-1.044.08-1.59.24s-1.044.305-1.49.433c-.323.257-.55.53-.677.817-.13.29-.253.598-.382.916-.26.9-.613 1.638-1.062 2.216v1.443c-.514.642-.818 1.142-.914 1.49-.097.355-.208.69-.335 1.015-.13.19-.227.367-.29.527-.062.16-.097.337-.097.527.512.965.643 2.057.387 3.272l.002.008v.004h.007v.006-.004zm-194.6 29.372c.24 0 .54-.002.903-.008.36-.006.735-.008 1.128-.008.394 0 .772-.004 1.147-.012.373-.01.69-.012.957-.012.977 0 1.783.062 2.43.18.643.123 1.16.303 1.553.533.392.235.668.526.83.876.164.354.245.757.245 1.214 0 .698-.244 1.3-.73 1.806-.49.504-1.202.822-2.14.957.637.037 1.18.137 1.625.3.442.16.81.38 1.092.646.282.27.487.597.612.978.124.374.187.794.187 1.25 0 .532-.104 1.01-.31 1.438-.205.43-.532.793-.98 1.104-.453.308-1.04.544-1.764.71-.722.17-1.605.256-2.652.256-1.068 0-2.116.004-3.142.008-1.023.01-2.004.02-2.942.043 0-.264.015-.52.036-.77.023-.257.06-.466.107-.638.24-.014.438-.05.6-.107.153-.062.276-.162.367-.31.09-.144.15-.343.182-.597.026-.254.043-.588.043-1.01v-5.486c0-.407-.016-.73-.044-.977-.03-.24-.09-.43-.183-.566-.09-.14-.214-.235-.37-.3-.155-.06-.36-.103-.612-.144-.048-.182-.083-.408-.102-.688-.02-.28-.027-.52-.027-.724.23.023.533.04.91.046.382.01.73.01 1.04.01h.002zm3.25 1.425c-.085.024-.17.062-.253.11v3.644h.65c.59 0 1.06-.156 1.405-.477.35-.322.522-.808.522-1.455 0-.59-.166-1.054-.486-1.39-.324-.338-.74-.508-1.246-.508-.224.006-.423.03-.592.076zm-.253 5.256v2.31c0 .395.034.717.103.965.062.246.155.44.27.578.116.14.247.23.396.27.15.047.312.063.48.063.444 0 .827-.168 1.146-.506.313-.335.477-.82.477-1.458 0-.844-.206-1.422-.613-1.744-.41-.318-1.013-.48-1.806-.48h-.456.002zm14.64-6.68c.353 0 .864-.015 1.546-.045.68-.03 1.41-.043 2.19-.043.784 0 1.456.088 2.022.27.565.182 1.03.426 1.397.732s.64.668.812 1.082c.174.416.262.852.262 1.31 0 .612-.086 1.15-.253 1.614-.17.465-.4.854-.695 1.184-.294.324-.64.576-1.036.762-.17.082-.347.146-.523.197.13.047.246.102.342.16.192.098.37.24.53.436.166.187.33.437.5.75.166.306.372.7.608 1.18.122.24.23.435.326.58.1.144.2.26.31.35.106.093.224.157.345.2.12.043.27.066.45.078 0 .494-.065.97-.197 1.428-.95 0-1.8.014-2.547.035-.746.024-1.273.063-1.588.108-.147-.424-.298-.87-.46-1.354-.164-.48-.344-.947-.533-1.404-.133-.34-.25-.626-.354-.858-.103-.233-.21-.436-.323-.604-.115-.168-.24-.312-.37-.435-.072-.062-.15-.123-.235-.182h-.688v1.12c0 .493.015.884.045 1.175.028.29.08.51.152.66.07.147.163.246.27.29.107.04.248.064.418.075.045.136.078.337.1.604.02.27.025.536.025.803-.17-.012-.387-.02-.66-.023l-.856-.02c-.3-.006-.597-.006-.884-.006h-.76c-.492 0-.977 0-1.452.006-.476.008-.924.02-1.346.045 0-.314.014-.585.036-.813.022-.23.062-.428.105-.598.24-.013.44-.052.598-.106.156-.062.28-.164.372-.31.09-.144.15-.345.18-.597s.045-.588.045-1.01v-5.523c0-.406-.015-.732-.045-.977-.03-.238-.09-.43-.18-.568-.09-.136-.214-.233-.372-.302-.156-.056-.36-.103-.612-.142-.024-.084-.045-.192-.06-.32-.02-.14-.03-.272-.037-.41l-.022-.386c-.005-.12-.01-.213-.01-.27.362.02.812.042 1.354.054.54.013 1.124.017 1.748.017h.004zm2.602 1.317c-.267 0-.518.043-.758.125v4.44c.12.023.21.035.27.035.1.014.19.02.272.02.254 0 .505-.045.758-.137.252-.09.474-.223.667-.402.19-.182.35-.412.47-.688.12-.277.183-.604.183-.976 0-.78-.17-1.38-.506-1.797-.342-.412-.793-.62-1.356-.62zm15.958-1.317c.24-.058.462-.095.66-.1.196-.005.436-.01.713-.01l4.006 8.79c.218.473.397.846.542 1.118.144.28.27.492.39.646.112.147.223.254.322.31.104.053.222.086.354.098.05.158.086.36.108.605.023.244.036.514.036.803-.18-.012-.402-.02-.668-.025l-.803-.02c-.27-.004-.533-.008-.787-.008h-1.23c-.274 0-.573.004-.893.008-.318.008-.63.016-.93.02-.304.008-.535.016-.702.027 0-.338.013-.61.037-.82.022-.213.06-.406.106-.586.397-.1.636-.248.714-.453.077-.203.025-.512-.152-.92l-.127-.27c-.696.013-1.407.03-2.13.054-.65.024-1.313.065-1.986.127l-.017.07c-.062.132-.094.274-.102.424-.007.153.02.295.074.43.054.136.137.248.252.345.113.096.267.16.46.196.047.19.084.398.105.633.023.227.036.484.036.773-.103-.016-.25-.02-.423-.025l-.56-.02c-.197-.007-.4-.01-.604-.01h-.52c-.304 0-.62.003-.957.01s-.6.02-.778.044c0-.275.013-.52.036-.736.022-.222.07-.44.145-.67.145-.025.27-.07.39-.14.113-.066.225-.164.334-.3.105-.13.22-.31.334-.53s.243-.51.39-.854l3.826-9.034h.002v-.002l-.002.002zm-1.896 8.035h3.07l-.67-1.535c-.323-.724-.582-1.4-.775-2.04-.048-.145-.098-.296-.144-.452l-.148.47c-.192.624-.435 1.3-.723 2.022l-.612 1.535zm21.105-8.09c.12.016.284.022.488.024.205.01.424.015.648.02.23.008.452.012.67.012h.56c.313 0 .654-.004 1.028-.013.372-.007.667-.02.883-.04 0 .224-.004.46-.01.7-.008.24-.047.475-.117.702-.24.035-.435.09-.577.16-.146.07-.26.2-.347.385-.088.18-.143.433-.174.756-.026.326-.044.755-.044 1.283v8.27c-.24.07-.492.113-.75.134-.258.018-.557.027-.894.027l-6.157-8.322v4.225c0 .52.02.938.057 1.256.034.318.104.57.215.758.107.188.257.32.44.396.188.082.425.14.714.174.06.205.096.43.106.676.012.248.018.492.018.73-.135-.012-.29-.02-.47-.025l-.576-.02c-.206-.008-.408-.008-.613-.008h-.52c-.158 0-.347-.004-.567-.01-.224-.01-.448-.01-.678-.01h-.63c-.194 0-.347.005-.453.018 0-.29.01-.535.026-.74.018-.205.06-.408.117-.613.273-.035.507-.094.692-.172.187-.076.337-.21.452-.396.11-.188.19-.438.243-.76.047-.316.07-.732.07-1.256v-6.062l-.253-.344c-.098-.168-.225-.283-.39-.354-.16-.062-.438-.115-.82-.15-.06-.205-.1-.424-.118-.65-.018-.23-.024-.48-.024-.758.12.014.283.02.486.025l.66.018c.232.006.465.01.692.01h1.05c.19 0 .38-.004.565-.01.19-.008.37-.016.544-.018.17-.01.32-.016.44-.025l4.962 6.842v-2.854c0-.516-.02-.936-.053-1.252-.036-.32-.11-.572-.227-.762-.115-.187-.27-.316-.47-.396-.196-.078-.46-.137-.785-.172-.06-.203-.096-.438-.105-.703-.005-.267-.01-.5-.01-.706h.008zm8.99 0c.19.016.42.022.687.024.265.01.545.015.847.02.303.008.613.012.94.012h.956c.287 0 .612-.006.976-.017.356-.02.78-.02 1.263-.02.878 0 1.71.07 2.5.216s1.48.435 2.062.856c.592.43 1.062 1.02 1.412 1.776.348.758.523 1.75.523 2.98 0 .976-.12 1.81-.36 2.51-.242.698-.558 1.28-.948 1.75-.392.472-.832.85-1.315 1.14-.487.29-.978.506-1.464.646-.486.146-.95.24-1.39.29-.44.046-.81.07-1.11.07-.314 0-.74.005-1.28.01-.542.007-1.1.015-1.67.02l-1.59.02c-.488.007-.834.01-1.04.01 0-.265.014-.524.036-.774.022-.256.06-.463.105-.635.243-.015.438-.048.6-.106.154-.06.277-.164.367-.31s.15-.343.18-.597c.03-.254.047-.588.047-1.01v-5.486c0-.407-.017-.73-.044-.974-.028-.244-.09-.435-.18-.568-.093-.14-.217-.24-.37-.3-.158-.06-.36-.107-.614-.144-.046-.186-.08-.41-.1-.69-.02-.274-.03-.514-.03-.718zm4.944 8.79c0 .425.02.77.064 1.04.043.272.118.482.226.64.108.16.254.272.437.337.182.067.407.102.687.102.134 0 .322-.043.57-.127.246-.082.486-.285.72-.604.236-.316.44-.79.614-1.416.175-.625.263-1.486.263-2.584 0-.963-.08-1.752-.233-2.373-.156-.62-.367-1.11-.633-1.474-.266-.36-.566-.61-.908-.75-.348-.137-.703-.207-1.076-.207-.268 0-.506.05-.722.145v7.277l-.004-.005h-.003zm13.343-5.398c0-.406-.018-.732-.046-.976-.03-.238-.083-.43-.162-.566-.078-.138-.195-.238-.354-.3-.158-.057-.36-.105-.613-.143-.048-.182-.088-.398-.118-.66-.03-.257-.046-.507-.046-.747.147.015.355.02.634.025l.885.02c.313.005.62.01.922.01h1.535c.275 0 .557-.005.84-.01.282-.01.55-.017.81-.022.26-.006.48-.014.66-.022 0 .238-.008.476-.02.703-.014.228-.06.463-.146.7-.25.023-.453.064-.603.126-.15.062-.27.16-.355.3-.084.14-.143.33-.17.575-.03.247-.046.575-.046.983v5.486c0 .423.014.76.044 1.01.027.253.09.452.18.597.09.146.216.248.37.31.155.063.355.1.6.105.046.17.082.39.104.65.023.268.037.52.037.76-.276-.02-.666-.04-1.174-.045-.507-.007-1.07-.01-1.696-.01s-1.244.003-1.857.01c-.613.008-1.134.02-1.555.047 0-.22.02-.463.056-.74.034-.274.076-.5.126-.67.24-.014.438-.047.587-.104.15-.062.27-.164.353-.31.086-.146.144-.344.172-.598.027-.255.044-.59.044-1.013v-5.483.006h.004zm17.386-3.394c.117.014.28.02.485.027.204.008.422.014.647.018.23.008.45.012.668.012h.56c.313 0 .657-.004 1.03-.012.373-.006.67-.02.887-.043 0 .227-.004.463-.012.703-.005.242-.044.477-.114.703-.24.036-.436.09-.58.163-.144.072-.256.2-.34.38-.086.18-.145.435-.174.76s-.043.753-.043 1.28v8.27c-.244.07-.494.114-.754.135-.258.017-.557.025-.893.025l-6.156-8.324v4.227c0 .52.017.937.053 1.255.038.316.11.57.22.758.105.188.253.318.44.398.187.08.425.138.713.173.06.206.098.434.108.677.014.247.02.49.02.73-.133-.013-.29-.022-.47-.026l-.577-.02c-.204-.007-.41-.01-.613-.01h-.52c-.16 0-.35-.004-.57-.008-.223-.01-.447-.01-.676-.01h-.63c-.195 0-.347.006-.453.016 0-.29.01-.534.025-.737.02-.204.06-.407.117-.612.277-.034.51-.094.695-.17.188-.08.337-.213.452-.397.112-.187.19-.437.242-.76.048-.314.07-.732.07-1.255v-6.062l-.25-.347c-.1-.167-.23-.284-.39-.353-.163-.062-.44-.113-.82-.152-.06-.202-.103-.42-.118-.647-.02-.23-.025-.48-.025-.758.12.014.28.02.486.023l.657.02c.234.005.466.01.695.01h1.047c.194 0 .38-.005.568-.01.188-.01.37-.015.542-.02.174-.008.32-.014.44-.024l4.963 6.84v-2.853c0-.52-.017-.937-.052-1.255-.035-.315-.11-.57-.227-.76-.115-.186-.272-.315-.472-.395-.194-.078-.46-.14-.782-.172-.062-.203-.1-.44-.11-.703-.01-.268-.02-.497-.02-.702h-.003l.012-.003v.003zm16.768 8.992c0-.266-.018-.482-.055-.65-.037-.168-.102-.305-.19-.406-.09-.104-.223-.173-.39-.216-.17-.043-.38-.068-.632-.082-.073-.37-.108-.834-.108-1.39.35.022.748.04 1.2.043.452.007.874.01 1.272.01h1.264c.48 0 .914-.014 1.297-.034 0 .24-.006.48-.016.704-.016.23-.044.45-.09.668-.315.023-.504.107-.57.254-.065.146-.104.414-.104.812v.434c0 .242.01.447.02.613.015.17.03.32.056.46.022.14.052.272.09.397.034.127.083.262.145.406-.553.408-1.228.746-2.02 1.012-.795.266-1.65.396-2.563.396-.976 0-1.853-.154-2.627-.46-.775-.31-1.437-.74-1.978-1.3s-.963-1.23-1.256-2.018c-.292-.78-.438-1.643-.438-2.582 0-1.022.17-1.922.515-2.696.345-.776.81-1.42 1.397-1.93.588-.51 1.268-.897 2.026-1.153.767-.26 1.574-.39 2.435-.39.78 0 1.54.097 2.27.286.733.192 1.366.41 1.897.65-.072.42-.125.864-.154 1.335-.03.468-.044.956-.044 1.462-.267.133-.56.207-.883.225-.323.02-.624.025-.903.025-.048-.95-.267-1.617-.66-2.002-.39-.39-.937-.58-1.632-.58-.48 0-.89.125-1.22.373-.33.247-.6.57-.805.976-.203.404-.352.86-.44 1.38-.09.52-.133 1.055-.133 1.605 0 .784.063 1.505.196 2.16.133.655.324 1.222.576 1.69.255.47.56.835.91 1.102.354.267.75.396 1.185.396.153 0 .272-.006.358-.02.084-.014.162-.03.232-.055.168-.06.305-.172.405-.344.103-.167.15-.49.15-.958v-.61l.008.004h.006zm15.125-8.992c.145.014.357.02.645.027.285.006.578.014.883.018.31.008.602.012.877.012h1.23c.265 0 .55-.004.85-.012.3-.006.6-.012.894-.016.29-.008.55-.016.77-.027 0 .254-.014.496-.03.73-.016.234-.055.465-.115.678-.274.037-.494.096-.647.172-.158.078-.263.193-.314.346-.055.15-.06.356-.01.61.047.262.143.588.287.984.243.688.49 1.428.74 2.225.134.42.275.877.433 1.37l2.457-7.06c.228-.062.478-.102.747-.118.27-.018.522-.024.768-.024.324.78.63 1.52.912 2.22.28.697.56 1.39.832 2.074.27.688.54 1.387.82 2.094.13.338.264.69.394 1.047l.976-3.354c.133-.458.213-.843.242-1.147.03-.31.008-.562-.07-.763-.08-.196-.21-.348-.39-.45-.18-.102-.415-.18-.704-.228-.084-.203-.138-.437-.154-.688-.02-.254-.025-.494-.025-.723.117.015.27.02.45.026.18.008.37.014.567.02.197.006.395.01.586.01h1.03c.18 0 .357-.004.54-.01.182-.006.355-.016.522-.018.17-.008.315-.016.437-.025 0 .24-.008.48-.02.713-.014.234-.06.465-.145.695-.17.062-.316.142-.44.243-.128.105-.25.246-.36.436-.112.187-.227.433-.334.74-.106.306-.23.692-.36 1.164l-2.33 8.27c-.1.023-.224.048-.38.072-.153.02-.32.043-.504.056-.185.012-.365.02-.554.024-.188.005-.36.01-.518.01-.274-.745-.546-1.452-.805-2.122-.258-.666-.52-1.326-.782-1.984-.268-.654-.536-1.318-.81-1.992l-.45-1.104-2.44 7.078c-.12.02-.265.045-.434.062-.168.017-.344.032-.518.045s-.346.02-.516.02h-.416c-.504-1.63-.996-3.18-1.474-4.658-.475-1.48-.903-2.795-1.29-3.936-.18-.53-.327-.947-.44-1.256-.114-.31-.22-.542-.313-.702-.098-.162-.192-.27-.3-.315-.103-.05-.224-.078-.37-.09-.06-.218-.094-.45-.104-.695-.015-.246-.02-.502-.02-.766v-.006h-.008v-.003zm21.845 6.1c0-.962.15-1.825.46-2.59.308-.76.73-1.413 1.28-1.948.55-.537 1.202-.947 1.97-1.236.763-.29 1.603-.437 2.52-.437.938 0 1.792.14 2.56.424.77.283 1.433.684 1.98 1.2.548.518.97 1.147 1.267 1.886.296.74.44 1.562.44 2.465 0 .977-.146 1.863-.44 2.666-.295.8-.715 1.488-1.256 2.064-.54.582-1.194 1.026-1.97 1.346-.77.32-1.63.48-2.583.48-.973 0-1.846-.154-2.615-.46-.77-.313-1.425-.74-1.96-1.295-.533-.556-.94-1.22-1.23-1.994-.28-.775-.424-1.632-.423-2.574zm3.702-.428c0 .72.056 1.406.162 2.057.11.65.27 1.22.493 1.707.225.49.508.872.85 1.155.347.282.76.424 1.236.424.372 0 .704-.11.993-.337.29-.223.535-.543.73-.957.2-.416.352-.916.452-1.508.104-.59.154-1.244.154-1.97 0-.685-.06-1.33-.19-1.938-.124-.606-.31-1.137-.55-1.588-.242-.45-.53-.81-.876-1.076-.346-.264-.73-.396-1.166-.396-.73 0-1.3.384-1.694 1.146-.398.767-.6 1.86-.6 3.277v.002h.003zm23.322-5.672c0 .23.013.484.03.77.016.28.04.572.076.865.035.295.074.576.117.85s.094.517.153.73c-.244.098-.504.176-.776.234-.274.062-.626.09-1.047.09-.06-.324-.14-.62-.23-.885-.1-.264-.24-.487-.427-.67-.188-.184-.43-.32-.724-.424-.295-.103-.666-.153-1.106-.153h-.888v4.1c.303 0 .545-.022.73-.07.187-.048.335-.12.442-.22.104-.098.188-.225.23-.387.05-.166.073-.365.073-.605.205-.086.453-.143.738-.17.29-.03.572-.047.853-.047-.023.292-.043.6-.053.935-.015.33-.02.728-.02 1.183 0 .503.007.923.02 1.253.012.333.026.632.053.896-.336 0-.63-.012-.875-.036-.247-.022-.47-.07-.675-.142-.05-.494-.18-.822-.39-.982-.21-.166-.588-.248-1.13-.248v1.934c0 .424.022.77.063 1.037.042.27.116.484.226.642.107.158.252.27.435.336.182.065.408.102.686.102h.31c.614 0 1.1-.193 1.452-.578.355-.39.652-1.012.896-1.88.397.038.765.112 1.103.228.34.117.584.244.74.39-.135.42-.25.916-.346 1.487-.096.572-.167 1.152-.218 1.742-.268 0-.594-.006-.975-.01l-1.222-.02c-.428-.007-.863-.01-1.31-.01h-1.213c-.31 0-.735.003-1.28.01-.54.01-1.097.014-1.666.02l-1.594.02c-.485.006-.832.008-1.032.008 0-.267.012-.52.032-.775.025-.254.062-.463.11-.633.24-.015.435-.05.593-.104.158-.06.28-.164.37-.31s.15-.346.184-.6c.026-.255.045-.587.045-1.01v-5.486c0-.406-.017-.732-.045-.976-.03-.242-.093-.43-.183-.568-.09-.135-.212-.235-.37-.3-.157-.058-.36-.103-.61-.142-.047-.184-.08-.408-.1-.69-.02-.273-.025-.517-.025-.722.263.014.6.02 1 .027.402.005.825.01 1.27.02.443.005.883.01 1.32.01h2.938c.52 0 .974-.005 1.36-.01l1.038-.02c.307-.01.58-.015.832-.026v-.006h.002v-.005h.01zm9.93-.108c.78 0 1.475.065 2.075.196.603.135 1.06.288 1.37.47 0 .544.01 1.077.028 1.602.016.522.05.94.098 1.255-.253.145-.575.24-.976.296-.396.056-.744.082-1.047.082-.072-.49-.164-.896-.277-1.217-.114-.317-.255-.567-.415-.75-.162-.18-.346-.308-.553-.378-.205-.072-.437-.105-.687-.105-.313 0-.6.086-.856.26-.26.177-.392.455-.392.84 0 .388.146.703.44.957.294.255.66.488 1.104.703.44.215.918.438 1.436.66.52.224.995.494 1.437.82.44.326.81.73 1.104 1.21.293.483.44 1.085.44 1.808 0 .578-.12 1.103-.353 1.568-.234.472-.562.874-.984 1.21-.422.338-.916.598-1.487.777-.57.18-1.2.27-1.888.27-.47 0-.89-.018-1.257-.055-.37-.037-.702-.094-1.01-.172-.307-.076-.605-.18-.893-.307-.285-.13-.597-.28-.923-.46.1-.507.162-1.022.19-1.546.03-.52.046-1.03.046-1.523.35-.098.71-.156 1.084-.184.37-.02.732-.035 1.082-.035.035.565.088 1.03.154 1.393.063.36.17.646.307.854.14.2.313.348.532.436.216.08.5.124.847.124.445 0 .816-.11 1.113-.336.295-.224.438-.52.438-.896 0-.36-.134-.654-.4-.885-.27-.23-.613-.44-1.03-.643-.417-.197-.858-.41-1.333-.64-.48-.23-.922-.52-1.338-.866-.414-.35-.758-.79-1.03-1.31-.27-.526-.403-1.19-.403-1.995 0-.58.11-1.083.334-1.52.223-.433.522-.792.9-1.08.378-.29.825-.51 1.333-.66.515-.15 1.06-.23 1.638-.23v.005z"/></g></svg>