<svg xmlns="http://www.w3.org/2000/svg" width="1136.283" height="548.121" viewBox="0 0 1136.283 548.121"><g fill="#FFF"><path d="M447.506 258.987c2.06.448 3.267 1.03 3.625 1.745.36.718.228 1.5-.398 2.35-.628.852-1.522 1.725-2.687 2.618-1.165.896-2.283 1.657-3.355 2.282-.985-.178-2.037-.02-3.154.47-1.12.493-2.17 1.053-3.155 1.68-1.165-.18-2.35-.27-3.56-.27h-3.69c-.63 1.79-1.323 3.513-2.08 5.17-.763 1.655-1.77 3.065-3.02 4.228-.09.446.02.85.333 1.206.312.357.56.762.736 1.21-.985.806-1.68 1.655-2.08 2.55-.404.895-.674 1.836-.81 2.818-.132.985-.222 1.927-.266 2.82-.046.895-.248 1.744-.604 2.55-.806.36-1.52.808-2.146 1.343-.628.537-1.232 1.074-1.813 1.61-.582.536-1.228 1.007-1.944 1.41-.72.4-1.61.692-2.686.872-1.88-.627-3.404-1.23-4.566-1.813-1.163-.58-2.506-1.23-4.026-1.946-1.254-1.607-1.946-3.31-2.08-5.102-.135-1.79.065-3.578.603-5.37.538-1.788 1.253-3.49 2.15-5.103.893-1.61 1.744-3.04 2.55-4.295.625-1.25 1.162-2.37 1.61-3.354-2.06-.09-4.14-.067-6.242.066-2.104.135-4.275.337-6.512.605-.537 1.522-1.188 2.977-1.946 4.363-.76 1.39-1.68 2.617-2.754 3.69-.09.45.044.853.404 1.21.354.357.625.76.805 1.207-.986.807-1.678 1.658-2.08 2.55-.404.897-.673 1.813-.807 2.754-.136.94-.248 1.88-.336 2.82-.09.94-.314 1.772-.67 2.484-.808.356-1.5.806-2.084 1.342-.584.537-1.19 1.074-1.812 1.61-.627.535-1.298 1.007-2.014 1.41-.718.4-1.61.69-2.686.87-1.88-.624-3.38-1.228-4.498-1.81-1.12-.58-2.48-1.23-4.094-1.947-1.255-1.523-1.926-3.2-2.014-5.036-.09-1.833.134-3.646.67-5.438.538-1.787 1.253-3.49 2.15-5.102.893-1.61 1.743-3.04 2.55-4.295-1.074 0-2.17.02-3.29.063-1.12.046-2.216.113-3.288.2-1.345-.714-2.33-1.61-2.954-2.685-.627-1.074-1.054-2.215-1.275-3.424-.225-1.21-.313-2.438-.27-3.692.045-1.252.066-2.504.066-3.76.356-.982.96-1.744 1.812-2.28.85-.538 1.767-1.03 2.752-1.478 2.686-.087 5.102-.2 7.25-.335 2.146-.134 4.25-.29 6.31-.47.088-.178.155-.403.2-.67.045-.27.112-.49.203-.67-.09-1.254.2-2.888.873-4.9.672-2.016 1.454-4.185 2.35-6.51-1.52.266-2.82.49-3.893.67-1.074.18-1.97.36-2.687.536-2.146-.088-3.736-.403-4.767-.94-1.03-.538-1.812-1.186-2.35-1.947-.536-.76-.896-1.61-1.073-2.55-.18-.94-.448-1.948-.807-3.02.717-.717 1.187-1.7 1.41-2.956.223-1.252-.066-2.192-.874-2.82.895-.178 1.7-.692 2.415-1.543.717-.85.983-1.497.807-1.945 2.77-.447 5.64-.692 8.592-.738 2.954-.044 5.77-.202 8.458-.47.982-1.79 1.854-4.14 2.618-7.048.76-2.91 1.61-5.818 2.55-8.728.94-2.908 2.102-5.48 3.49-7.72 1.388-2.236 3.155-3.58 5.304-4.027 2.685 2.507 4.72 5.168 6.11 7.987 1.386 2.82 2.525 6.155 3.422 10.002-.27.895-.672 2.014-1.21 3.356-.536 1.344-1.164 2.91-1.88 4.7 2.15-.087 4.297-.134 6.443-.134 2.147 0 4.25-.044 6.31-.134.806-1.967 1.563-4.34 2.282-7.115.717-2.773 1.544-5.48 2.483-8.123.94-2.638 2.082-4.944 3.424-6.914 1.343-1.967 3.04-3.176 5.103-3.625 2.595 2.417 4.61 5.057 6.042 7.92 1.43 2.866 2.55 6.223 3.354 10.07-.27.895-.694 2.08-1.274 3.558-.584 1.478-1.232 3.156-1.948 5.035 1.43.09 2.82.248 4.162.47 1.343.224 2.55.537 3.625.94 1.07.403 1.92.94 2.55 1.61.624.672.98 1.544 1.073 2.62 1.61.18 2.707.492 3.29.938.58.45.893.986.94 1.612.04.627-.115 1.32-.47 2.08-.36.762-.674 1.5-.94 2.215-2.51 1.075-5.528 1.903-9.063 2.484-3.536.583-7.316 1.007-11.344 1.275-.985 2.865-1.834 5.436-2.55 7.72-.72 2.282-1.12 4.005-1.21 5.168h5.907c-.09.806.224 1.388.94 1.746.715.358 1.477.65 2.282.872.805.225 1.52.493 2.145.806.63.32.81.877.542 1.683h.01zm-44.438-4.297c1.79-.18 3.893-.312 6.31-.403 2.417-.088 4.92-.18 7.52-.27.178-1.43.647-3.265 1.408-5.503.76-2.236 1.632-4.564 2.617-6.98h-7.585c-2.372 0-4.543.045-6.51.134-.987 2.775-1.814 5.258-2.485 7.45-.672 2.195-1.053 3.827-1.142 4.9l-.132.672z"/><path d="M460.26 236.834c.27-1.342.447-2.438.537-3.29.087-.85-.225-1.766-.94-2.75.356-1.432.648-2.552.875-3.357.223-.806.244-1.924.066-3.356.806-2.326 2.035-4.295 3.692-5.906 1.65-1.61 3.465-2.975 5.435-4.095 1.968-1.12 4.027-2.06 6.176-2.82 2.15-.76 4.164-1.41 6.044-1.947 0-.355-.18-.536-.536-.536-.357 0-.45-.222-.27-.67 4.833-.895 9.687-2.193 14.566-3.895 4.877-1.7 9.865-3.222 14.97-4.564 5.1-1.343 10.337-2.17 15.707-2.484 5.37-.31 11.01.383 16.918 2.082.355 1.074.85 2.104 1.477 3.088.625.985 1.275 1.946 1.946 2.886.673.94 1.276 1.858 1.813 2.752.537.896.85 1.836.94 2.82 1.073.985 1.945 2.037 2.617 3.154.67 1.12.782 2.618.335 4.497-.986.717-2.015 1.433-3.088 2.148-1.074.718-2.194 1.39-3.356 2.015-4.023-.982-8.053-1.342-12.08-1.073-4.03.267-7.652.582-10.877.94-.984-1.076-2.146-1.59-3.49-1.545-1.344.046-2.752.27-4.23.672-1.475.4-2.93.804-4.36 1.207-1.433.403-2.774.516-4.026.335-.986.896-2.282 1.5-3.896 1.812-1.61.314-3.31.56-5.102.738-.09.45 0 .76.268.94.27.18.312.537.134 1.074.624.806 1.478 1.366 2.55 1.678 1.074.314 2.17.604 3.29.873 1.117.27 2.126.65 3.02 1.14.897.494 1.48 1.276 1.747 2.35 1.612.09 2.998.516 4.162 1.276 1.162.76 2.145 1.678 2.953 2.75.805 1.076 1.387 2.217 1.745 3.425.355 1.208.49 2.305.4 3.29.356.895.74 1.253 1.144 1.074.4-.18.872.044 1.41.67.353 1.343 1.184 2.752 2.48 4.23 1.297 1.476 2.304 3.066 3.022 4.765.18 2.685.337 5.102.47 7.25.136 2.148-.245 4.252-1.14 6.31-1.522 3.94-3.716 7.475-6.58 10.605-2.863 3.135-6.106 5.89-9.73 8.258-3.626 2.373-7.453 4.43-11.48 6.176-4.025 1.744-8.01 3.2-11.947 4.364-.358-.092-.784-.092-1.275 0-.49.086-.603-.18-.334-.81-.806.717-1.725 1.162-2.752 1.345-1.03.178-2.148.245-3.356.2-1.208-.047-2.417-.112-3.625-.2-1.208-.09-2.396-.046-3.557.133-.717-.717-1.366-1.433-1.947-2.146-.583-.717-1.053-1.565-1.408-2.553-.45-.09-.65-.378-.604-.872.044-.492-.157-.74-.604-.74 0-.355.045-.623.135-.805l.27-.535c.354-.27.514-.47.47-.604-.048-.134-.183-.27-.403-.4-.227-.137-.45-.29-.672-.472-.226-.18-.29-.403-.2-.67.446-.808.603-1.77.47-2.89-.135-1.116-.25-2.26-.337-3.424-.09-1.162 0-2.26.27-3.29.27-1.026 1.027-1.9 2.282-2.616 3.67.357 7.138.18 10.405-.538 3.266-.716 6.354-1.7 9.263-2.953 2.908-1.254 5.685-2.62 8.324-4.096 2.64-1.477 5.21-2.84 7.72-4.095.27-.896.69-1.657 1.273-2.285.582-.625 1.185-1.23 1.812-1.812.625-.58 1.207-1.208 1.745-1.88.538-.67.94-1.497 1.21-2.483.088-.356.088-.625 0-.806-.09-.178-.226-.335-.402-.47-.18-.135-.358-.29-.537-.47-.18-.178-.27-.447-.27-.805-.27-.09-.516-.18-.738-.27-.225-.09-.427-.135-.604-.135-2.33-1.162-4.79-2.148-7.382-2.954-2.598-.805-4.79-1.7-6.58-2.685-1.074.718-2.147.896-3.222.538-1.075-.357-2.373-.715-3.896-1.074-3.76-.18-7.314-.538-10.673-1.075-3.354-.537-6.6-1.477-9.73-2.82-.182-.537-.403-1.006-.674-1.41-.267-.402-.894-.512-1.88-.334-.625-.893-1.27-1.72-1.942-2.483-.67-.757-1.272-1.63-1.81-2.616l-.01.004z"/><path d="M612.638 221.798c.088.627.11 1.098.066 1.41-.047.314-.09.604-.133.873-.045.27-.064.56-.064.874 0 .314.088.785.27 1.41-1.882 3.043-4.052 5.124-6.512 6.242-2.465 1.12-5.127 1.926-7.99 2.417-2.864.493-5.795 1.007-8.79 1.544-3 .537-5.978 1.7-8.933 3.49-1.16-.446-2.212-.446-3.15 0-.94.45-2.308.584-4.097.404-.537.538-1.207.92-2.014 1.14-.806.226-1.61.47-2.417.74.357.805.516 1.634.473 2.483-.047.852.066 1.544.334 2.08 3.133.27 6.6.226 10.403-.133 3.805-.357 7.54-.583 11.21-.673.09.45.046.738-.132.873-.18.134-.223.38-.133.738.625.45 1.252 1.007 1.88 1.678.624.672 1.25 1.322 1.88 1.947.623.628 1.275 1.142 1.945 1.545.673.402 1.456.56 2.35.47.358.717.606 1.5.74 2.35.134.85.02 1.724-.337 2.617-1.435.986-2.865 1.993-4.295 3.02-1.435 1.03-2.935 1.947-4.498 2.753-1.566.806-3.224 1.456-4.967 1.947-1.746.493-3.693.693-5.84.604h-1.01c-.224 0-.517-.136-.872-.404-.72.448-1.727.583-3.02.402-1.303-.18-2.31-.045-3.022.4-.984-.445-2.17-.646-3.56-.603-1.39.046-2.615-.11-3.69-.47-1.432 1.88-2.728 3.894-3.892 6.04-1.164 2.148-2.195 4.433-3.09 6.85 3.043.448 5.57.626 7.586.536 2.014-.09 3.915-.245 5.708-.47 1.79-.224 3.624-.447 5.505-.673 1.88-.223 4.25-.29 7.115-.2 1.79-.984 3.913-1.634 6.377-1.947 2.46-.312 4.72-.826 6.778-1.543.714.27 1.344.737 1.88 1.407.535.67 1.05 1.3 1.544 1.88.49.583 1.008 1.1 1.543 1.544.536.45 1.21.628 2.016.537.355.36.604.785.738 1.275.135.492.244.963.336 1.41.088.447.242.827.47 1.14.22.315.603.428 1.14.337-1.342 2.953-2.887 5.215-4.63 6.78-1.747 1.564-3.74 2.75-5.976 3.558-2.238.805-4.72 1.433-7.45 1.88-2.73.446-5.753.983-9.063 1.61-.807.178-1.477.152-2.014-.067-.536-.224-1.165-.336-1.88-.336-2.06.448-4.52.85-7.382 1.21-2.866.355-5.773.49-8.73.4-2.952-.09-5.77-.47-8.457-1.14-2.684-.675-4.88-1.858-6.578-3.562-.717-.625-1.187-1.363-1.407-2.215-.228-.852-.83-1.5-1.813-1.947-.09-1.162-.268-2.46-.537-3.895-.268-1.433-.537-2.933-.806-4.498-.272-1.566-.47-3.11-.605-4.634-.135-1.52-.065-2.906.2-4.16.27-1.344.828-2.55 1.68-3.626.85-1.074 1.14-2.236.873-3.49.446-.09.716-.336.807-.738.088-.403.446-.56 1.073-.47.537-1.61 1.117-3.133 1.745-4.565.625-1.43 1.274-2.82 1.946-4.16.67-1.344 1.34-2.708 2.014-4.096.67-1.386 1.32-2.93 1.946-4.632-1.254-1.16-2.17-2.437-2.752-3.826-.583-1.386-1.007-2.772-1.274-4.162-.27-1.386-.492-2.82-.67-4.295-.183-1.48-.494-2.976-.94-4.5.895-1.342 1.99-2.44 3.29-3.29 1.296-.85 2.707-1.543 4.23-2.08 1.52-.537 3.175-.983 4.967-1.343 1.79-.356 3.67-.76 5.64-1.208 3.58-1.163 6.78-2.06 9.6-2.686 2.82-.625 5.592-1.142 8.324-1.544 2.73-.404 5.572-.784 8.525-1.142 2.95-.356 6.31-.894 10.064-1.61.81.804 1.565 1.207 2.284 1.207.355-.804.78-1.05 1.275-.737.487.314.688.067.603-.738.89 1.522 2.033 2.797 3.422 3.825 1.39 1.033 2.937 1.906 4.636 2.62v.008l-.006.005zm32.223 74.107c-2.51.81-5.236 1.61-8.19 2.42-2.952.806-5.907 1.208-8.86 1.208-4.477 0-8.012-1.12-10.604-3.355-.447-.983-.852-1.656-1.207-2.016-.27-.354-.52-.738-.74-1.14-.225-.403-.383-.96-.47-1.68-1.075-1.253-1.927-2.705-2.55-4.36-.63-1.656-1.058-3.357-1.277-5.105-.225-1.746-.268-3.512-.135-5.303.135-1.79.424-3.49.873-5.102.18-.355.29-.715.335-1.073.045-.357.11-.76.2-1.21.355-1.43.74-2.82 1.144-4.162.4-1.342.96-2.504 1.68-3.49-.36-.806-.36-1.7 0-2.686.354-.983.758-1.88 1.206-2.684 1.252-3.4 2.304-6.287 3.154-8.66.85-2.37 1.722-4.72 2.616-7.047 1.52-4.03 2.955-8.01 4.297-11.95 1.342-3.936 2.55-8.19 3.625-12.753.715-.447 1.252-.76 1.61-.94.536-.18.982-.312 1.343-.403 1.61.806 3.49 1.59 5.643 2.35 2.146.76 3.938 1.14 5.37 1.14.714.45 1.16.786 1.343 1.008.18.226.355.427.535.605.985 1.164 1.835 2.35 2.55 3.557.718 1.207.94 2.797.675 4.766-.537.805-.94 1.208-1.21 1.208-.446 1.792-.917 3.312-1.407 4.564-.494 1.254-1.008 2.507-1.543 3.76-.63 1.342-1.21 2.684-1.746 4.026-.538 1.343-.987 3-1.345 4.968-.357.45-.604.852-.736 1.208-.136.358-.294.76-.47 1.208-.182.45-.386.92-.606 1.41-.225.492-.56.918-1.008 1.274-.27 2.33-.693 4.208-1.275 5.64s-1.188 2.864-1.81 4.295c-1.075 2.597-2.038 5.19-2.888 7.787-.854 2.597-1.364 5.55-1.545 8.86.447-.18.873-.27 1.275-.27h1.143c.807 0 1.745.136 2.82.403 2.686-1.43 5.614-2.283 8.792-2.55 3.177-.27 6.33-.448 9.465-.538h3.763c1.252 0 2.416-.09 3.487-.27.808.45 1.318.692 1.546.737.223.046.56.064 1.008.064.625 0 1.16.047 1.61.136 1.072.987 2.1 1.7 3.086 2.15.982.45 2.017.85 3.09 1.21.98.354 1.943.735 2.886 1.14.94.4 1.854.962 2.754 1.677l.937 5.773c.622.806.895 1.343.807 1.61 0 .716-.185 1.253-.537 1.61l.27 1.477c-1.344.27-2.262.582-2.754.94s-.96.76-1.408 1.207c-.72.09-1.23.135-1.545.135h-.87c-1.257 0-2.775.223-4.564.67-2.417-.806-4.923-1.21-7.52-1.21-.985 0-2.016.052-3.088.136l-3.224.27c-1.074.184-2.172.314-3.29.402-1.12.09-2.26.134-3.423.134l-3.094.813zm56.654-3.087c-.537 3.044-2.06 5.146-4.563 6.31-1.164.09-2.037.046-2.62-.134-.583-.18-1.187-.4-1.81-.67-.806-.357-1.523-.582-2.15-.67l-1.478-1.074c-.18-.45-.4-.896-.67-1.346-.27-.445-.584-.895-.94-1.343-.717-.895-1.433-2.014-2.145-3.355-.537-2.595-.627-4.766-.268-6.512.352-1.745.8-3.468 1.34-5.17.18-.536.353-1.096.535-1.678.178-.58.354-1.143.535-1.68-2.327-1.25-4.07-3.04-5.233-5.37-1.164-2.325-1.834-4.564-2.016-6.712.27-1.7.766-3.065 1.48-4.094.716-1.028 1.542-1.857 2.48-2.484.94-.625 1.925-1.118 2.956-1.477 1.022-.358 2.033-.673 3.02-.94l1.744.67c.805.805 1.61 1.432 2.416 1.88.625-.27 1.05-.693 1.275-1.276.225-.58.426-1.23.605-1.946.27-.808.56-1.613.873-2.42.312-.804.693-1.61 1.144-2.416-.09-1.163.09-2.236.535-3.222-.625-.447-1.297-.715-2.012-.806-.182 0-.627-.088-1.344-.268-1.073-.807-1.81-1.5-2.214-2.082-.404-.582-.785-1.142-1.144-1.678-.537-1.162-1.21-2.102-2.014-2.82l-1.344-.94.67-1.34c.18-.18.27-.404.27-.673 0-.268-.18-.67-.537-1.208-.18-.984-.18-1.656 0-2.015l.27-1.343c.717-.984 1.076-1.52 1.076-1.61l1.21-1.21c1.786-.447 3.556-.96 5.302-1.543 1.742-.582 3.51-1.185 5.3-1.813 1.702-.536 3.425-1.094 5.17-1.677 1.743-.583 3.51-1.096 5.303-1.545.625-.446 1.297-.737 2.016-.872.715-.135 1.387-.246 2.014-.335.537-.087 1.03-.155 1.478-.2.446-.044.762-.2.94-.47 1.072-.356 2.324-.76 3.756-1.208 2.236-.625 5.19-1.32 8.86-2.08 3.67-.76 7.788-1.365 12.353-1.813l2.283-.135c.447.09.894.113 1.342.067.447-.044.896-.067 1.343-.067 4.026 0 6.58 1.208 7.653 3.625.808.45 1.52.94 2.148 1.478.625.537 1.207 1.074 1.744 1.61.268.36.56.672.873.94.31.27.557.45.737.537 1.52 2.328 2.015 4.386 1.478 6.174-.808 1.163-1.834 1.834-3.086 2.013l-1.48.804c-.983-.088-1.725-.134-2.215-.134h-1.545c-2.24 0-4.833.134-7.788.403-2.955.268-5.975.65-9.062 1.14-3.088.494-6.064 1.1-8.93 1.814-2.865.718-5.37 1.478-7.517 2.284l-2.418 1.208c-.627.985-.986 1.77-1.072 2.35-.09.582-.182 1.14-.27 1.677-.093.356-.156.715-.2 1.072-.048.358-.114.76-.202 1.207-1.522 1.88-2.282 4.117-2.282 6.71-.628 1.074-1.03 1.858-1.21 2.35-.178.492-.178 1.097 0 1.812 1.7.718 3.312.986 4.834.806 1.52-.18 3.043-.404 4.564-.67 2.06-.358 4.184-.673 6.38-.94 2.188-.27 4.448-.404 6.778-.404h4.295l-1.07 1.074.67 1.88c.535.27.916.45 1.14.537.222.09.472.225.737.403l.672 1.21c.354.18.69.49 1.005.938.314.45.52 1.12.605 2.014l-5.505 7.786-1.88.537c-1.52-.088-2.864.09-4.024.537-.627.18-1.254.336-1.88.47-.626.135-1.3.2-2.016.2-1.79.36-3.29.628-4.495.807-1.21.18-2.44.357-3.69.536-1.613.18-3.18.426-4.7.738-1.523.315-2.954.74-4.298 1.276h-1.878c-.72 0-1.457.112-2.215.335-.765.226-1.458.427-2.083.605-.45.357-.764.738-.94 1.14-.18.405-.355.83-.536 1.276-.356 1.257-.852 2.282-1.477 3.09v2.015c-.717.895-1.143 1.59-1.275 2.08-.135.492-.293.963-.47 1.41-.18.27-.314.516-.403.738-.09.224-.135.47-.135.736.714 1.343.895 2.864.538 4.563l.005.008v.008z"/></g><path fill="#FFF" d="M429.26 333.77c.334 0 .754-.003 1.258-.01.505-.01 1.027-.013 1.573-.013.55 0 1.08-.006 1.604-.015.52-.012.965-.015 1.334-.015 1.36 0 2.486.084 3.385.25.896.17 1.62.418 2.165.744.545.33.932.734 1.158 1.22.227.49.34 1.053.34 1.69 0 .975-.34 1.81-1.02 2.518-.68.702-1.675 1.147-2.982 1.334.89.053 1.646.19 2.267.416.62.228 1.13.53 1.523.905.394.377.68.83.854 1.36.176.524.266 1.108.266 1.747 0 .74-.146 1.406-.43 2-.286.598-.743 1.107-1.37 1.537-.63.43-1.45.76-2.457.992-1.007.235-2.24.354-3.7.354-1.492 0-2.952.004-4.38.012-1.426.01-2.793.027-4.102.06 0-.368.018-.73.05-1.08.034-.354.084-.647.15-.884.336-.018.613-.066.832-.15.218-.084.39-.227.516-.43.126-.2.21-.477.252-.83.04-.354.062-.82.062-1.408v-7.65c0-.57-.02-1.022-.062-1.36s-.126-.6-.252-.79c-.125-.19-.298-.333-.516-.417-.218-.082-.503-.15-.855-.2-.066-.252-.114-.57-.14-.957-.025-.388-.04-.72-.04-1.007.32.035.745.056 1.27.062.53.01 1.014.013 1.45.013v.002zm4.53 1.99c-.118.034-.235.085-.353.15v5.085h.905c.822 0 1.48-.22 1.963-.666.486-.448.73-1.124.73-2.028 0-.82-.23-1.467-.68-1.938-.453-.47-1.032-.705-1.737-.705-.317 0-.595.034-.828.1zm-.352 7.325v3.223c0 .555.047 1.002.14 1.348.09.342.218.61.377.805.16.195.343.32.553.382.21.06.434.086.667.086.62 0 1.154-.234 1.6-.705.443-.47.668-1.145.668-2.036 0-1.175-.286-1.98-.856-2.43-.57-.445-1.41-.667-2.517-.667h-.63v-.002l-.002-.003zm20.412-9.314c.488 0 1.205-.02 2.153-.06s1.968-.062 3.058-.062c1.094 0 2.03.123 2.82.377.79.25 1.44.593 1.95 1.02s.89.933 1.135 1.51c.243.58.365 1.19.365 1.827 0 .854-.12 1.605-.354 2.252s-.56 1.193-.97 1.646c-.41.454-.894.807-1.446 1.06-.235.116-.48.208-.73.276.185.065.344.143.48.227.27.133.517.336.742.604.23.27.46.617.694 1.047.234.428.52.98.854 1.646.168.335.318.604.453.808.138.2.28.363.433.488.15.127.31.22.478.28.167.06.377.093.63.107 0 .69-.093 1.354-.276 1.99-1.326 0-2.51.018-3.55.05s-1.778.085-2.216.15c-.202-.59-.415-1.214-.642-1.888-.228-.67-.476-1.324-.742-1.963-.186-.47-.348-.87-.49-1.195-.144-.326-.294-.607-.454-.844-.16-.234-.332-.438-.516-.605-.1-.085-.21-.17-.327-.253h-.96v1.56c0 .69.022 1.233.064 1.64.044.403.113.708.216.92.1.208.227.343.377.4.15.06.344.097.58.11.063.188.11.47.137.845.024.38.037.75.037 1.12-.234-.018-.54-.027-.917-.036l-1.197-.024c-.42-.008-.83-.01-1.23-.01h-1.06c-.687 0-1.36.002-2.024.01-.662.01-1.287.03-1.875.062 0-.438.018-.812.05-1.133.034-.32.085-.597.15-.833.335-.016.612-.066.83-.148.222-.085.392-.23.52-.43.126-.2.21-.48.252-.83.04-.355.06-.82.06-1.41v-7.702c0-.57-.02-1.023-.06-1.36-.043-.333-.127-.6-.253-.792-.124-.19-.296-.328-.517-.416-.218-.08-.503-.146-.854-.198-.036-.116-.064-.27-.09-.452-.024-.188-.04-.375-.05-.568l-.024-.54c-.008-.167-.014-.294-.014-.378.504.033 1.134.06 1.89.074.753.016 1.566.02 2.438.02l-.006.003zm3.625 1.84c-.37 0-.72.06-1.057.175v6.19c.167.036.293.052.377.052.134.018.26.025.377.025.354 0 .705-.06 1.058-.188.352-.125.66-.312.93-.564.27-.252.488-.572.655-.957.168-.387.252-.84.252-1.358 0-1.09-.235-1.926-.705-2.504-.47-.58-1.1-.87-1.888-.87zm22.25-1.838c.335-.08.644-.13.92-.14.276-.006.607-.01.994-.01l5.585 12.258c.304.656.555 1.176.757 1.56.2.388.38.685.54.896.16.21.31.354.452.43.145.074.308.12.49.137.068.22.118.5.152.844.033.344.05.717.05 1.12-.252-.017-.562-.028-.932-.038l-1.12-.026c-.377-.006-.743-.01-1.097-.01h-1.712c-.388 0-.803.004-1.246.01-.445.01-.88.02-1.298.027-.42.01-.746.02-.98.04 0-.472.017-.853.05-1.146.035-.295.085-.565.15-.817.556-.137.887-.346.995-.63.108-.283.037-.714-.214-1.283l-.177-.38c-.973.02-1.963.044-2.97.075-.906.034-1.83.093-2.77.177l-.023.1c-.084.185-.13.384-.14.59-.01.214.024.41.102.595.075.188.19.347.352.48.16.134.373.226.644.275.066.27.12.562.15.884.034.318.053.68.053 1.083-.15-.02-.35-.03-.594-.04l-.78-.023c-.276-.01-.56-.015-.844-.015h-.728c-.42 0-.864.004-1.333.013-.47.008-.833.03-1.085.062 0-.387.017-.73.05-1.03.034-.304.1-.613.202-.933.2-.035.38-.098.54-.19s.315-.228.467-.415c.15-.185.305-.432.465-.742s.34-.707.542-1.193l5.333-12.593.005-.002zm-2.642 11.204h4.28l-.934-2.14c-.453-1.01-.813-1.956-1.083-2.845-.065-.202-.135-.413-.2-.63l-.2.654c-.272.87-.605 1.81-1.008 2.818l-.857 2.144zm29.424-11.277c.167.017.396.025.68.035.285.01.59.02.905.024.32.008.63.014.934.014h.78c.437 0 .912-.006 1.435-.015.52-.01.93-.027 1.23-.06 0 .314-.003.643-.012.977-.01.34-.064.664-.164.982-.336.05-.604.124-.806.226-.202.1-.36.277-.48.53s-.195.604-.238 1.057c-.04.454-.062 1.052-.062 1.788v11.53c-.337.1-.687.16-1.046.188-.36.023-.776.037-1.246.037l-8.583-11.604v5.89c0 .725.025 1.307.076 1.75.05.445.146.8.3 1.06.15.26.357.444.617.554.26.112.59.19.994.24.084.286.135.6.15.94.018.348.024.688.024 1.022-.188-.017-.404-.03-.655-.038l-.805-.025c-.286-.01-.57-.012-.856-.012h-.73c-.22 0-.48-.003-.792-.012-.31-.012-.624-.014-.943-.014h-.88c-.27 0-.48.01-.63.024 0-.404.013-.746.038-1.03.023-.286.08-.57.164-.856.384-.05.707-.13.968-.238.26-.11.47-.295.63-.555.158-.263.27-.614.34-1.062.065-.44.1-1.023.1-1.75v-8.453l-.353-.48c-.135-.232-.312-.395-.54-.49-.228-.09-.61-.16-1.146-.21-.085-.286-.14-.59-.165-.907-.023-.32-.036-.67-.036-1.058.167.02.395.027.68.037l.92.022c.326.008.648.012.968.012h1.463c.268 0 .53-.004.79-.013.262-.01.514-.02.757-.023.24-.012.447-.02.614-.037l6.92 9.54v-3.98c0-.72-.023-1.303-.073-1.746-.05-.445-.155-.797-.314-1.06-.16-.26-.378-.442-.654-.553-.275-.11-.643-.19-1.096-.238-.083-.283-.133-.61-.15-.98-.014-.37-.02-.695-.02-.98l-.003-.003zm12.535 0c.268.017.587.025.957.035.365.01.76.02 1.18.024.42.008.855.014 1.31.014h1.334c.4 0 .854-.008 1.36-.022.5-.02 1.09-.026 1.76-.026 1.225 0 2.387.1 3.485.303 1.102.2 2.06.6 2.88 1.192.823.598 1.48 1.424 1.967 2.48.484 1.056.73 2.44.73 4.15 0 1.358-.17 2.526-.506 3.5-.335.974-.775 1.784-1.32 2.438-.545.655-1.16 1.184-1.837 1.588-.68.404-1.36.705-2.04.904-.68.2-1.325.336-1.937.402-.613.066-1.13.102-1.548.102-.44 0-1.033.004-1.788.012-.755.01-1.53.02-2.328.025-.797.01-1.535.018-2.215.025-.683.012-1.164.014-1.45.014 0-.367.018-.73.05-1.08.035-.355.085-.646.15-.884.338-.02.612-.065.833-.15.218-.083.39-.227.515-.43.125-.2.21-.478.25-.83.042-.354.062-.82.062-1.407v-7.65c0-.57-.02-1.022-.06-1.358s-.126-.6-.25-.793c-.127-.19-.3-.333-.517-.417-.22-.082-.504-.15-.856-.2-.065-.253-.114-.57-.14-.958-.022-.387-.034-.72-.032-1.006zm6.896 12.257c0 .588.03 1.07.09 1.446.058.38.163.677.313.896.15.217.355.372.605.465.252.095.57.14.957.14.186 0 .45-.06.794-.178.344-.115.68-.396 1.007-.844.328-.44.613-1.103.854-1.975.243-.87.365-2.07.365-3.603 0-1.34-.11-2.44-.327-3.308-.218-.863-.512-1.55-.88-2.05-.37-.506-.794-.855-1.27-1.047-.48-.192-.98-.29-1.5-.29-.37 0-.704.066-1.006.2v10.147h-.002zm18.602-7.526c0-.57-.022-1.022-.063-1.36-.042-.333-.115-.6-.227-.792-.11-.19-.273-.332-.49-.416-.22-.08-.504-.15-.854-.198-.067-.252-.123-.56-.164-.92-.04-.36-.062-.71-.062-1.043.202.02.495.027.88.037l1.234.023c.438.007.865.013 1.285.013h2.14c.385 0 .774-.006 1.17-.014.395-.01.77-.02 1.13-.027.36-.01.667-.02.92-.036 0 .336-.01.66-.025.98-.017.318-.084.645-.2.98-.353.032-.634.09-.843.174-.21.085-.375.226-.492.417s-.197.46-.238.806c-.042.346-.062.803-.062 1.372v7.65c0 .59.02 1.057.062 1.41.04.35.125.63.252.83.124.2.297.344.517.428.22.084.495.135.83.147.066.235.117.54.15.907.033.37.05.724.05 1.06-.385-.032-.93-.058-1.636-.063-.706-.008-1.493-.012-2.366-.012s-1.734.004-2.592.012c-.854.01-1.578.03-2.165.063 0-.305.025-.646.076-1.032.05-.387.108-.697.176-.934.336-.017.61-.065.818-.15.21-.083.374-.226.49-.43.12-.2.197-.476.24-.83.04-.353.062-.82.062-1.407v-7.65.008zm24.24-4.733c.165.018.392.027.68.037.284.01.585.018.903.025.32.007.63.013.932.013h.78c.437 0 .915-.006 1.435-.014.52-.01.935-.028 1.234-.062 0 .315-.004.645-.014.98-.01.337-.062.663-.162.98-.336.05-.605.126-.808.228s-.357.277-.476.53c-.12.25-.2.603-.24 1.056-.043.453-.06 1.052-.06 1.787v11.53c-.34.1-.688.16-1.048.187-.36.022-.775.037-1.244.037l-8.583-11.604v5.89c0 .725.02 1.307.072 1.75.05.444.15.8.303 1.06.15.26.354.443.615.555s.594.19.995.24c.083.285.136.6.15.94.017.347.025.687.025 1.02-.186-.016-.402-.028-.653-.036l-.807-.026c-.284-.01-.57-.014-.854-.014h-.73c-.22 0-.48-.004-.792-.012-.31-.012-.625-.014-.943-.014h-.88c-.27 0-.48.01-.63.023 0-.404.013-.746.038-1.03.024-.286.08-.57.163-.855.39-.05.71-.13.972-.237.26-.11.47-.295.63-.556.16-.264.27-.613.34-1.06.066-.443.1-1.025.1-1.75v-8.456l-.352-.48c-.135-.232-.314-.395-.54-.488-.228-.09-.608-.16-1.146-.213-.084-.285-.14-.588-.163-.906-.024-.32-.036-.67-.036-1.057.167.018.394.027.68.037l.918.023c.327.008.65.012.97.012h1.46c.27 0 .53-.004.792-.012.26-.01.515-.02.756-.023.243-.012.45-.02.616-.037l6.922 9.54v-3.98c0-.72-.024-1.304-.073-1.747-.05-.444-.156-.797-.316-1.06-.16-.26-.378-.442-.655-.552-.274-.108-.64-.188-1.094-.24-.083-.282-.134-.608-.15-.98-.018-.368-.025-.693-.025-.978h-.006v-.005zm23.382 12.537c0-.37-.025-.676-.076-.908-.05-.234-.137-.424-.264-.566-.125-.143-.308-.242-.54-.303-.237-.06-.528-.097-.882-.113-.1-.52-.15-1.164-.15-1.936.486.032 1.043.055 1.674.06.63.01 1.22.012 1.773.012h1.762c.67 0 1.273-.017 1.81-.05 0 .336-.01.664-.023.982-.018.317-.06.627-.125.93-.438.035-.7.152-.793.354-.094.2-.144.578-.144 1.13v.605c0 .337.013.624.027.856.018.235.04.45.074.643.032.192.073.38.124.554.05.178.118.363.2.566-.77.57-1.71 1.04-2.82 1.41-1.103.37-2.297.554-3.57.554-1.358 0-2.58-.216-3.662-.64-1.08-.43-2-1.035-2.755-1.813s-1.34-1.715-1.75-2.807c-.408-1.09-.615-2.29-.615-3.6 0-1.43.236-2.68.718-3.765.48-1.082 1.13-1.98 1.95-2.69.82-.712 1.767-1.25 2.83-1.61 1.062-.36 2.193-.54 3.388-.54 1.09 0 2.146.133 3.172.4 1.02.27 1.903.57 2.643.905-.103.59-.175 1.21-.216 1.862-.043.654-.062 1.334-.062 2.04-.37.186-.78.288-1.232.313s-.872.036-1.26.036c-.065-1.325-.372-2.256-.917-2.793-.547-.536-1.308-.807-2.277-.807-.672 0-1.238.173-1.7.52-.46.344-.835.796-1.12 1.36-.284.56-.49 1.2-.614 1.922-.126.726-.188 1.47-.188 2.24 0 1.09.092 2.094.277 3.01.184.914.453 1.7.805 2.354.354.653.777 1.165 1.27 1.534s1.047.553 1.65.553c.216 0 .384-.01.503-.025.117-.016.228-.04.326-.072.234-.084.424-.242.566-.48.14-.232.212-.68.212-1.334v-.854.002zm21.09-12.537c.202.018.5.027.896.037.396.01.807.018 1.23.025.43.007.837.013 1.225.013h1.71c.37 0 .767-.006 1.185-.014.42-.01.836-.02 1.246-.024.41-.01.768-.02 1.07-.037 0 .353-.015.69-.04 1.02-.022.325-.077.645-.16.942-.388.053-.69.133-.907.24-.22.107-.365.27-.44.48-.074.21-.08.494-.013.854s.2.815.402 1.37c.336.958.68 1.99 1.03 3.1.187.586.388 1.223.604 1.91l3.424-9.843c.32-.082.668-.14 1.045-.162.375-.023.73-.035 1.07-.035.45 1.09.875 2.123 1.27 3.096.394.974.777 1.938 1.16 2.895.377.957.756 1.93 1.144 2.918.184.47.37.957.555 1.46l1.355-4.684c.186-.636.297-1.17.34-1.597.043-.43.01-.783-.1-1.06-.11-.276-.29-.485-.544-.63-.25-.145-.576-.25-.978-.314-.118-.286-.19-.606-.216-.96-.023-.354-.037-.688-.037-1.006.167.018.38.027.63.037s.516.02.793.026c.275.008.55.014.816.014h1.435c.252 0 .504-.006.756-.014.253-.01.495-.02.73-.023.233-.01.438-.02.605-.037 0 .336-.01.668-.024.994-.017.326-.085.648-.2.97-.235.083-.44.196-.616.34-.176.145-.344.343-.502.604-.16.26-.313.604-.466 1.032-.15.43-.32.97-.504 1.623l-3.248 11.53c-.136.032-.31.065-.53.1-.216.033-.45.06-.702.076-.252.018-.51.03-.77.037-.26.006-.5.014-.72.014-.385-1.04-.76-2.025-1.12-2.96-.358-.93-.724-1.85-1.093-2.767-.37-.914-.75-1.84-1.134-2.78-.203-.505-.412-1.015-.63-1.536l-3.397 9.867c-.17.034-.37.063-.605.09-.234.024-.478.047-.72.063-.24.018-.48.024-.717.024h-.58c-.705-2.267-1.39-4.43-2.053-6.492-.662-2.063-1.262-3.896-1.8-5.487-.25-.738-.456-1.32-.614-1.75-.16-.43-.305-.757-.438-.98-.136-.227-.27-.375-.416-.44-.144-.067-.314-.108-.517-.126-.085-.302-.134-.626-.15-.97-.02-.343-.025-.7-.025-1.067v-.007h-.003zm30.458 8.506c0-1.342.213-2.545.64-3.61.43-1.06 1.024-1.972 1.788-2.718.765-.748 1.68-1.32 2.744-1.725 1.064-.402 2.234-.605 3.51-.605 1.31 0 2.503.195 3.574.59 1.074.396 1.994.953 2.758 1.675.763.722 1.35 1.6 1.765 2.63.41 1.03.614 2.178.614 3.436 0 1.36-.205 2.6-.615 3.715-.413 1.118-.997 2.08-1.75 2.882-.757.81-1.67 1.434-2.745 1.877-1.074.444-2.275.667-3.603.667-1.356 0-2.573-.215-3.647-.643-1.074-.43-1.984-1.027-2.73-1.8-.746-.772-1.315-1.7-1.713-2.782-.395-1.084-.59-2.28-.592-3.59zm5.16-.6c0 1.005.075 1.962.228 2.868.153.906.38 1.7.69 2.38.312.68.706 1.217 1.183 1.61.48.396 1.058.59 1.728.59.52 0 .98-.15 1.385-.465.405-.31.745-.756 1.02-1.334.28-.58.49-1.276.633-2.102.143-.82.215-1.735.215-2.744 0-.954-.087-1.856-.265-2.704-.176-.85-.43-1.586-.768-2.216-.337-.63-.742-1.13-1.22-1.5-.48-.366-1.022-.553-1.624-.553-1.024 0-1.813.533-2.366 1.602-.557 1.065-.832 2.59-.832 4.567v.004h-.005zm32.52-7.906c0 .318.017.676.04 1.07.024.393.06.797.11 1.207s.104.805.164 1.184c.06.38.13.717.215 1.02-.34.136-.7.244-1.084.328-.387.084-.875.125-1.46.125-.085-.452-.194-.863-.327-1.232-.136-.364-.33-.68-.593-.93-.26-.253-.596-.45-1.008-.59-.41-.146-.93-.218-1.546-.218h-1.234v5.715c.42 0 .76-.033 1.02-.1.26-.068.47-.17.618-.307.15-.135.26-.312.326-.54.066-.23.1-.507.1-.843.287-.12.634-.197 1.033-.238.402-.043.798-.064 1.185-.064-.032.404-.06.836-.073 1.3-.02.462-.026 1.01-.026 1.646 0 .703.01 1.29.025 1.75.015.46.04.877.073 1.244-.47 0-.876-.017-1.22-.05-.347-.034-.658-.1-.943-.2-.068-.688-.248-1.146-.54-1.37-.294-.23-.82-.344-1.575-.344v2.693c0 .59.03 1.07.09 1.447.06.38.162.678.314.895.15.22.35.375.603.467.252.095.57.14.955.14h.433c.855 0 1.53-.27 2.023-.806.496-.54.91-1.41 1.246-2.62.552.05 1.063.157 1.534.315.47.16.812.34 1.032.542-.188.586-.347 1.28-.48 2.076s-.232 1.605-.302 2.43c-.37 0-.824-.006-1.357-.014l-1.7-.025c-.597-.007-1.203-.01-1.822-.01h-1.69c-.435 0-1.03.003-1.786.01-.755.013-1.53.02-2.326.026l-2.218.026c-.68.01-1.16.012-1.443.012 0-.37.018-.73.05-1.082.034-.354.085-.646.15-.883.337-.02.61-.066.83-.15.22-.082.39-.228.517-.43.125-.2.21-.48.252-.83.04-.355.062-.82.062-1.408v-7.65c0-.57-.02-1.023-.062-1.36s-.127-.6-.252-.792c-.125-.19-.297-.332-.518-.416-.22-.082-.503-.15-.854-.2-.064-.253-.112-.57-.138-.958-.027-.387-.037-.72-.037-1.006.367.018.836.03 1.396.037.562.01 1.152.018 1.773.025.62.01 1.23.014 1.838.014h4.104c.723 0 1.356-.004 1.9-.014l1.446-.023c.425-.01.81-.02 1.16-.038v-.007l-.01.002zm13.844-.15c1.09 0 2.055.092 2.896.274.836.187 1.476.4 1.912.654 0 .758.012 1.5.037 2.23.02.73.07 1.312.135 1.75-.352.202-.805.34-1.36.415-.552.074-1.037.11-1.458.11-.102-.686-.23-1.25-.39-1.695-.16-.445-.354-.793-.58-1.045-.225-.252-.48-.43-.77-.527-.286-.103-.605-.15-.954-.15-.44 0-.836.12-1.197.363-.36.244-.54.635-.54 1.17 0 .537.204.98.616 1.336.412.354.922.68 1.535.98.612.3 1.28.607 2 .92.725.31 1.39.69 2.004 1.146.61.453 1.126 1.017 1.536 1.688s.617 1.51.617 2.516c0 .807-.166 1.535-.49 2.19-.328.652-.785 1.216-1.373 1.687-.59.47-1.278.83-2.077 1.08-.797.25-1.674.377-2.63.377-.653 0-1.237-.022-1.75-.074-.514-.05-.98-.13-1.41-.24-.427-.106-.843-.25-1.243-.426-.4-.178-.83-.39-1.285-.64.138-.708.226-1.428.27-2.155.04-.73.06-1.437.06-2.126.487-.135.99-.22 1.512-.254.52-.03 1.022-.05 1.51-.05.05.788.123 1.437.215 1.94.094.502.236.896.428 1.185.193.282.44.485.742.604.303.116.697.175 1.184.175.62 0 1.138-.153 1.55-.465.414-.31.614-.727.614-1.246 0-.504-.188-.914-.563-1.233-.38-.317-.855-.614-1.437-.893-.58-.277-1.2-.574-1.86-.895-.664-.316-1.283-.72-1.863-1.207-.578-.486-1.057-1.096-1.436-1.824-.376-.73-.563-1.653-.563-2.778 0-.808.154-1.51.465-2.115s.73-1.105 1.26-1.51c.526-.404 1.15-.71 1.858-.92.71-.217 1.47-.32 2.276-.32h-.002z"/></svg>