<svg xmlns="http://www.w3.org/2000/svg" width="285.319" height="110.398" viewBox="0 0 285.319 110.398"><g fill="#FFF"><path d="M58.508 44.39c1.48.323 2.343.74 2.6 1.253.258.515.164 1.076-.286 1.686-.45.61-1.092 1.236-1.927 1.876-.835.643-1.637 1.188-2.406 1.637-.708-.127-1.462-.014-2.264.337-.804.353-1.557.755-2.264 1.205-.836-.13-1.686-.194-2.553-.194H46.76c-.45 1.285-.95 2.52-1.492 3.71-.546 1.187-1.27 2.198-2.166 3.032-.064.32.014.61.24.865.223.256.4.547.528.867-.707.578-1.206 1.188-1.492 1.828-.29.643-.482 1.316-.58 2.02-.095.708-.158 1.384-.19 2.023-.033.642-.178 1.25-.434 1.828-.578.258-1.092.58-1.54.963-.45.386-.884.77-1.3 1.156-.42.384-.883.722-1.397 1.01-.517.287-1.156.498-1.927.627-1.35-.45-2.442-.884-3.275-1.302-.834-.416-1.797-.88-2.888-1.396-.9-1.153-1.396-2.375-1.492-3.66-.097-1.282.047-2.565.432-3.852.386-1.283.898-2.503 1.54-3.66.643-1.154 1.252-2.18 1.83-3.08.45-.897.834-1.7 1.156-2.406-1.48-.064-2.97-.048-4.48.047-1.508.098-3.064.243-4.67.435-.384 1.092-.852 2.135-1.395 3.13-.544.995-1.204 1.877-1.975 2.646-.063.323.032.612.29.868.255.257.448.545.577.865-.708.578-1.203 1.188-1.492 1.83-.29.643-.482 1.3-.578 1.975-.1.674-.18 1.348-.24 2.023-.066.673-.228 1.27-.48 1.78-.58.256-1.077.578-1.496.962-.42.386-.853.77-1.3 1.154-.45.385-.93.724-1.444 1.012-.515.287-1.154.496-1.926.626-1.348-.447-2.424-.882-3.226-1.3-.803-.416-1.78-.883-2.937-1.396-.9-1.093-1.38-2.297-1.443-3.61-.064-1.315.096-2.615.48-3.9.385-1.282.898-2.504 1.54-3.66.643-1.153 1.252-2.18 1.83-3.08-.77 0-1.556.014-2.358.045-.805.033-1.59.082-2.358.144-.964-.513-1.67-1.155-2.12-1.926-.45-.77-.754-1.588-.914-2.455-.16-.868-.225-1.75-.193-2.648.032-.898.048-1.796.048-2.697.256-.704.69-1.25 1.3-1.635.61-.386 1.268-.74 1.975-1.06 1.926-.062 3.66-.144 5.2-.24 1.54-.095 3.048-.208 4.525-.337.062-.127.11-.29.144-.48.03-.194.08-.352.145-.48-.064-.9.144-2.07.626-3.515.482-1.445 1.044-3 1.686-4.67-1.09.192-2.02.352-2.792.48s-1.413.26-1.927.386c-1.54-.064-2.68-.29-3.42-.675-.738-.386-1.298-.85-1.685-1.396-.385-.546-.643-1.156-.77-1.83-.13-.674-.32-1.397-.578-2.166.514-.514.85-1.22 1.01-2.12.16-.898-.047-1.572-.626-2.023.643-.126 1.22-.495 1.733-1.105.514-.61.706-1.074.58-1.396 1.987-.32 4.045-.497 6.162-.53 2.118-.03 4.14-.145 6.065-.337.705-1.284 1.33-2.97 1.878-5.055.545-2.086 1.154-4.172 1.83-6.26.673-2.084 1.506-3.93 2.502-5.536.995-1.604 2.264-2.568 3.804-2.888 1.927 1.798 3.387 3.707 4.384 5.728.993 2.023 1.81 4.415 2.454 7.174-.194.642-.482 1.444-.868 2.407l-1.35 3.37c1.542-.06 3.082-.095 4.622-.095s3.048-.03 4.526-.096c.578-1.41 1.122-3.112 1.637-5.103.515-1.99 1.107-3.932 1.78-5.827.676-1.892 1.494-3.546 2.457-4.96.964-1.41 2.182-2.277 3.66-2.6 1.86 1.734 3.307 3.628 4.334 5.68 1.024 2.057 1.83 4.464 2.404 7.224-.192.642-.498 1.49-.912 2.55-.42 1.06-.885 2.265-1.397 3.612 1.026.063 2.023.177 2.986.336.963.16 1.828.385 2.6.675.77.29 1.377.675 1.83 1.155.446.482.703 1.107.77 1.88 1.153.128 1.94.352 2.36.672.415.322.64.707.673 1.156.03.45-.083.947-.338 1.492-.26.547-.483 1.076-.675 1.59-1.8.77-3.964 1.364-6.5 1.78-2.536.418-5.248.723-8.136.915-.706 2.055-1.315 3.898-1.828 5.537-.518 1.637-.803 2.873-.868 3.707h4.237c-.063.578.16.996.676 1.252.513.256 1.06.466 1.636.625.58.162 1.09.355 1.54.58.453.228.582.628.39 1.206l.006.005zm-31.87-3.08c1.283-.13 2.792-.225 4.524-.29 1.733-.063 3.53-.13 5.395-.193.126-1.026.463-2.342 1.01-3.947.545-1.604 1.17-3.273 1.876-5.006h-5.44c-1.7 0-3.258.032-4.67.096-.707 1.99-1.3 3.77-1.78 5.344-.483 1.574-.757 2.745-.82 3.514l-.095.48z"/><path d="M67.655 28.503c.194-.962.32-1.75.385-2.36.062-.61-.16-1.267-.674-1.972.255-1.026.464-1.83.626-2.407.16-.578.176-1.38.048-2.407.578-1.67 1.46-3.08 2.648-4.237 1.185-1.156 2.485-2.134 3.897-2.938 1.41-.802 2.89-1.476 4.43-2.022C80.557 9.615 82 9.15 83.35 8.764c0-.254-.13-.384-.386-.384s-.322-.16-.193-.48c3.468-.642 6.95-1.573 10.45-2.793 3.497-1.22 7.074-2.31 10.734-3.273C107.612.87 111.368.278 115.22.052c3.853-.222 7.897.275 12.134 1.494.255.77.608 1.51 1.06 2.214.448.707.914 1.396 1.395 2.07.48.674.914 1.333 1.298 1.974.385.643.61 1.317.674 2.022.77.707 1.396 1.46 1.877 2.262.48.803.56 1.877.24 3.225-.71.515-1.446 1.028-2.216 1.54-.77.516-1.574.998-2.407 1.446-2.886-.706-5.776-.963-8.666-.77-2.89.19-5.487.416-7.8.673-.705-.772-1.54-1.14-2.5-1.108-.966.033-1.977.194-3.035.482s-2.104.577-3.13.867c-1.026.29-1.988.37-2.886.24-.71.643-1.64 1.076-2.796 1.3-1.155.224-2.375.4-3.66.528-.063.323 0 .545.192.674.194.13.225.385.098.77.446.58 1.06.98 1.83 1.204.77.226 1.555.434 2.357.626.802.194 1.525.466 2.167.818.643.354 1.062.915 1.252 1.686 1.156.064 2.15.37 2.984.915.834.545 1.54 1.204 2.12 1.972.576.772.994 1.59 1.25 2.457.255.866.35 1.653.288 2.36.255.64.53.897.818.77.288-.13.625.03 1.012.48.254.962.85 1.973 1.78 3.033.93 1.06 1.65 2.2 2.166 3.418.13 1.926.242 3.66.337 5.2.1 1.54-.176 3.05-.817 4.526-1.09 2.827-2.665 5.362-4.72 7.606-2.053 2.248-4.38 4.225-6.98 5.923-2.6 1.7-5.344 3.176-8.233 4.43-2.887 1.25-5.745 2.295-8.568 3.13-.258-.066-.562-.066-.915 0-.353.06-.433-.13-.24-.58-.578.514-1.237.833-1.974.964-.74.128-1.54.176-2.407.144s-1.732-.08-2.6-.144c-.865-.065-1.718-.032-2.55.095-.515-.516-.98-1.027-1.397-1.54-.42-.515-.757-1.12-1.013-1.83-.32-.062-.465-.27-.433-.625.032-.353-.113-.53-.433-.53 0-.254.03-.447.097-.576l.193-.386c.256-.192.37-.336.34-.433-.036-.096-.133-.19-.29-.286-.163-.1-.324-.21-.483-.34-.162-.128-.208-.288-.144-.48.32-.577.432-1.27.337-2.07-.098-.802-.18-1.62-.242-2.456-.063-.833 0-1.62.194-2.36.193-.735.736-1.36 1.637-1.875 2.633.257 5.12.13 7.464-.386 2.342-.514 4.557-1.22 6.643-2.118 2.086-.9 4.077-1.88 5.97-2.94 1.895-1.06 3.737-2.036 5.537-2.936.193-.642.496-1.188.914-1.638.417-.448.85-.882 1.3-1.3.448-.416.866-.866 1.253-1.348.387-.48.675-1.074.868-1.78.063-.256.063-.45 0-.58-.063-.127-.16-.24-.288-.336-.13-.097-.258-.208-.386-.337-.13-.127-.193-.32-.193-.577-.192-.064-.368-.13-.528-.194-.16-.063-.306-.096-.435-.096-1.67-.833-3.436-1.54-5.295-2.12-1.862-.577-3.436-1.218-4.72-1.925-.77.515-1.54.643-2.31.386s-1.702-.514-2.794-.772c-2.697-.127-5.246-.385-7.655-.77-2.405-.385-4.733-1.06-6.98-2.022-.13-.385-.288-.722-.48-1.01-.192-.29-.642-.368-1.35-.24-.448-.642-.912-1.235-1.394-1.782-.48-.542-.914-1.17-1.3-1.876v-.005h.005z"/><path d="M176.944 17.72c.062.45.078.787.047 1.01-.032.226-.062.434-.095.626-.032.192-.047.4-.047.626 0 .225.062.563.192 1.01-1.35 2.184-2.904 3.676-4.67 4.478-1.768.803-3.677 1.38-5.73 1.733-2.055.354-4.155.722-6.304 1.107-2.15.385-4.288 1.22-6.406 2.503-.834-.32-1.588-.32-2.26 0-.676.323-1.656.42-2.94.29-.385.385-.865.66-1.443.818-.577.163-1.154.338-1.73.532.255.577.368 1.17.337 1.78-.033.61.05 1.107.24 1.492 2.246.193 4.733.162 7.46-.095 2.73-.257 5.41-.42 8.04-.484.064.323.033.53-.095.626-.13.096-.16.272-.097.53.448.322.898.72 1.35 1.203.446.482.895.948 1.35 1.396.444.45.913.82 1.394 1.11.482.288 1.045.4 1.687.336.257.514.435 1.076.53 1.686.097.61.015 1.236-.24 1.877-1.03.706-2.057 1.428-3.08 2.165-1.03.74-2.106 1.396-3.23 1.974-1.122.577-2.31 1.043-3.56 1.395-1.253.354-2.65.497-4.19.434h-.723c-.16 0-.37-.098-.624-.29-.517.32-1.238.417-2.166.288-.935-.13-1.656-.033-2.168.287-.707-.32-1.558-.463-2.553-.433-1 .033-1.878-.08-2.648-.337-1.028 1.35-1.958 2.793-2.792 4.332-.835 1.54-1.575 3.18-2.216 4.913 2.183.322 3.995.45 5.44.386 1.444-.063 2.81-.177 4.095-.337 1.283-.162 2.598-.322 3.946-.484 1.35-.16 3.05-.207 5.104-.146 1.283-.704 2.806-1.17 4.573-1.396 1.765-.223 3.385-.592 4.86-1.106.514.195.965.53 1.35 1.01s.754.932 1.106 1.35c.352.417.723.786 1.106 1.106.384.32.867.45 1.445.385.255.257.433.56.528.913.098.354.176.69.24 1.012.063.32.175.595.338.818.157.226.434.307.817.24-.963 2.118-2.07 3.74-3.32 4.862-1.254 1.123-2.682 1.975-4.286 2.553-1.604.576-3.386 1.027-5.343 1.35-1.96.318-4.127.704-6.5 1.152-.58.13-1.06.11-1.445-.047-.386-.16-.837-.242-1.35-.242-1.478.323-3.24.612-5.295.87-2.057.254-4.14.352-6.262.287-2.117-.064-4.14-.338-6.065-.817-1.925-.484-3.5-1.333-4.72-2.556-.514-.446-.85-.978-1.008-1.588-.164-.61-.597-1.076-1.302-1.396-.063-.834-.19-1.767-.385-2.793-.192-1.028-.385-2.104-.578-3.228s-.336-2.23-.433-3.325c-.098-1.09-.047-2.083.144-2.983.194-.963.595-1.83 1.205-2.6.61-.77.818-1.604.626-2.503.32-.065.513-.242.58-.53.062-.29.32-.402.77-.337.385-1.155.802-2.247 1.252-3.274.447-1.027.914-2.023 1.396-2.986s.963-1.94 1.445-2.937c.478-.994.944-2.102 1.395-3.322-.898-.832-1.557-1.748-1.974-2.744-.417-.993-.72-1.987-.913-2.984-.194-.994-.354-2.022-.48-3.08-.13-1.06-.354-2.134-.674-3.226.643-.963 1.428-1.75 2.36-2.36.93-.61 1.94-1.107 3.033-1.492 1.09-.386 2.277-.706 3.562-.964 1.284-.255 2.632-.545 4.045-.866 2.566-.833 4.863-1.476 6.886-1.926 2.02-.448 4.01-.82 5.97-1.107 1.957-.29 3.995-.562 6.113-.82 2.115-.254 4.524-.64 7.22-1.154.58.578 1.122.867 1.638.867.256-.577.562-.753.916-.53.35.227.492.05.432-.528.64 1.09 1.458 2.005 2.454 2.742.997.74 2.106 1.367 3.325 1.88v.005l-.003.002zm23.112 53.15c-1.802.58-3.758 1.153-5.875 1.732-2.116.58-4.236.867-6.353.867-3.212 0-5.747-.805-7.605-2.406-.32-.705-.61-1.188-.865-1.445-.193-.255-.372-.53-.53-.818-.16-.29-.274-.688-.338-1.205-.772-.897-1.383-1.94-1.83-3.127-.45-1.188-.758-2.408-.915-3.662-.16-1.252-.192-2.52-.097-3.803.097-1.283.304-2.502.626-3.66.128-.254.208-.512.24-.77.03-.254.077-.544.143-.865.255-1.025.53-2.022.82-2.986.288-.962.688-1.796 1.205-2.503-.26-.577-.26-1.22 0-1.926.255-.705.544-1.348.864-1.925.897-2.44 1.652-4.51 2.264-6.212.608-1.7 1.233-3.385 1.876-5.054 1.09-2.89 2.12-5.745 3.082-8.57.962-2.824 1.83-5.874 2.6-9.147.513-.32.898-.545 1.155-.674.385-.13.705-.224.963-.29 1.154.58 2.504 1.142 4.047 1.687 1.54.545 2.824.818 3.852.818.513.322.832.563.964.723.127.163.254.307.383.435.706.835 1.314 1.686 1.83 2.55.513.866.673 2.007.48 3.42-.385.577-.674.865-.868.865-.318 1.285-.656 2.375-1.01 3.273-.353.9-.722 1.798-1.104 2.697-.45.962-.867 1.925-1.252 2.888-.386.963-.707 2.15-.964 3.563-.257.324-.434.612-.527.868-.098.257-.21.545-.337.866-.13.323-.276.66-.436 1.01-.16.354-.4.66-.723.915-.193 1.67-.496 3.017-.914 4.044-.417 1.027-.854 2.054-1.3 3.08-.77 1.862-1.46 3.723-2.07 5.584-.61 1.863-.978 3.98-1.106 6.354.32-.128.625-.19.914-.19h.82c.578 0 1.25.096 2.02.287 1.927-1.026 4.027-1.64 6.308-1.83 2.277-.194 4.54-.32 6.788-.386h2.698c.897 0 1.73-.064 2.5-.193.58.323.946.498 1.11.53.158.033.4.047.723.047.448 0 .833.034 1.154.098.77.707 1.508 1.22 2.214 1.54.704.324 1.446.61 2.216.87.703.254 1.395.526 2.07.817.673.287 1.33.688 1.976 1.202l.672 4.14c.446.58.643.965.58 1.155 0 .514-.134.897-.387 1.153l.193 1.06c-.964.194-1.623.418-1.976.676-.354.256-.688.544-1.01.864-.518.063-.883.097-1.108.097h-.623c-.9 0-1.99.162-3.273.482-1.732-.578-3.53-.867-5.392-.867-.708 0-1.446.036-2.216.097l-2.313.194c-.77.13-1.56.226-2.36.287-.803.065-1.62.096-2.453.096l-2.218.58zm40.632-2.214c-.386 2.183-1.48 3.69-3.273 4.526-.836.063-1.462.03-1.88-.1-.418-.128-.852-.285-1.298-.478-.578-.256-1.093-.418-1.542-.48l-1.06-.77c-.13-.322-.287-.643-.48-.967-.193-.318-.42-.642-.674-.963-.515-.643-1.027-1.443-1.538-2.406-.386-1.86-.45-3.418-.192-4.67.253-1.252.575-2.488.96-3.71.13-.384.255-.784.387-1.202.128-.416.254-.82.384-1.205-1.668-.896-2.918-2.18-3.752-3.85-.835-1.668-1.315-3.274-1.446-4.815.193-1.22.55-2.198 1.062-2.936.515-.738 1.105-1.333 1.78-1.782.673-.448 1.38-.802 2.12-1.06.732-.255 1.457-.48 2.164-.673l1.25.48c.578.578 1.156 1.028 1.734 1.35.447-.193.753-.498.914-.916.16-.417.305-.883.434-1.397.194-.58.402-1.157.626-1.736.225-.577.498-1.155.82-1.732-.064-.834.063-1.604.384-2.31-.448-.322-.93-.514-1.442-.58-.13 0-.45-.063-.964-.192-.77-.58-1.3-1.076-1.59-1.493-.29-.417-.56-.82-.82-1.204-.384-.833-.866-1.508-1.44-2.022l-.966-.674.48-.96c.13-.13.193-.29.193-.484 0-.192-.128-.48-.386-.866-.13-.706-.13-1.188 0-1.445l.194-.963c.514-.706.77-1.09.77-1.155l.868-.868c1.28-.32 2.552-.69 3.804-1.107 1.25-.417 2.518-.85 3.8-1.3 1.222-.385 2.458-.785 3.71-1.204 1.25-.42 2.517-.787 3.803-1.11.448-.32.93-.528 1.445-.624.513-.097.994-.176 1.443-.24.387-.063.74-.112 1.062-.145.32-.03.546-.143.674-.336.77-.255 1.668-.545 2.694-.866 1.604-.448 3.723-.947 6.354-1.492 2.633-.545 5.586-.98 8.86-1.3l1.637-.096c.322.064.644.08.964.048.32-.032.643-.048.963-.048 2.89 0 4.72.866 5.49 2.6.578.323 1.09.674 1.54 1.06.448.385.865.77 1.25 1.155.192.258.402.482.627.674.222.192.398.322.528.384 1.09 1.67 1.443 3.146 1.06 4.428-.58.835-1.314 1.316-2.214 1.444l-1.062.577c-.704-.063-1.236-.096-1.588-.096H279.2c-1.606 0-3.466.096-5.585.29-2.12.19-4.285.465-6.5.816-2.214.354-4.35.79-6.404 1.3-2.054.516-3.85 1.06-5.39 1.64l-1.734.865c-.45.707-.707 1.27-.77 1.686-.063.417-.13.818-.192 1.203-.065.256-.112.514-.144.77-.034.257-.082.545-.146.866-1.093 1.35-1.638 2.954-1.638 4.814-.45.77-.738 1.332-.867 1.684-.13.355-.13.79 0 1.3 1.218.516 2.374.708 3.466.58 1.09-.13 2.184-.29 3.273-.48 1.477-.258 3-.484 4.575-.675 1.567-.194 3.19-.29 4.86-.29h3.08l-.768.77.48 1.35c.385.193.657.322.818.384.158.064.337.16.527.29l.48.867c.256.13.496.35.723.673.227.323.37.803.435 1.444l-3.948 5.584-1.35.385c-1.09-.063-2.054.064-2.886.385-.45.13-.9.24-1.35.337-.448.097-.93.144-1.445.144-1.28.257-2.356.45-3.223.578-.868.13-1.75.256-2.646.384-1.154.13-2.28.306-3.37.53-1.092.224-2.117.528-3.08.914h-1.35c-.516 0-1.044.08-1.588.24-.548.16-1.045.305-1.493.433-.323.255-.55.53-.676.817-.13.29-.255.596-.384.915-.257.9-.612 1.637-1.06 2.215v1.444c-.516.644-.82 1.143-.915 1.493-.098.354-.21.69-.337 1.013-.13.192-.227.368-.29.528-.063.16-.097.336-.097.527.514.966.644 2.058.388 3.274l.003.006v.005h.008z"/></g><path fill="#FFF" d="M45.422 98.027c.24 0 .54-.002.902-.01.36-.005.737-.007 1.128-.007.394 0 .774-.004 1.15-.01.372-.01.69-.012.956-.012.975 0 1.783.06 2.428.18.643.122 1.162.3 1.553.533.39.235.667.526.83.876.163.352.244.755.244 1.213 0 .697-.244 1.298-.73 1.804-.49.504-1.202.824-2.14.957.637.038 1.18.138 1.625.3.443.162.81.38 1.09.648.283.27.488.596.613.977.126.375.19.795.19 1.252 0 .53-.104 1.01-.31 1.436-.205.43-.532.794-.98 1.104-.453.308-1.04.545-1.764.71-.723.17-1.606.257-2.653.257-1.07 0-2.118.003-3.143.008-1.022.007-2.003.02-2.94.043 0-.264.012-.523.035-.773.022-.256.06-.465.106-.635.24-.013.44-.048.598-.107.155-.06.278-.162.37-.31.09-.143.15-.34.18-.595.028-.254.045-.588.045-1.01v-5.487c0-.408-.017-.733-.045-.976-.03-.24-.09-.43-.182-.567-.09-.138-.214-.237-.37-.298-.155-.06-.36-.107-.612-.145-.047-.18-.082-.408-.1-.687s-.028-.52-.028-.724c.23.026.533.042.91.046.38.008.727.01 1.04.01zm3.25 1.426c-.086.024-.17.062-.254.108v3.647h.65c.59 0 1.06-.158 1.407-.478.35-.322.523-.807.523-1.455 0-.588-.166-1.053-.486-1.39-.325-.337-.74-.507-1.246-.507-.23.003-.426.03-.595.075zm-.254 5.255v2.312c0 .396.034.718.102.966.063.245.156.438.27.577.115.14.246.23.396.273s.31.062.48.062c.444 0 .827-.168 1.147-.507.316-.335.48-.818.48-1.458 0-.844-.207-1.422-.614-1.743-.41-.32-1.014-.48-1.807-.48h-.453v-.002h-.002zm14.64-6.68c.35 0 .864-.014 1.545-.044.68-.03 1.412-.044 2.192-.044.784 0 1.456.09 2.022.27.567.18 1.033.425 1.4.732.364.307.637.668.81 1.082.175.416.263.853.263 1.312 0 .61-.086 1.15-.253 1.613-.17.463-.4.854-.696 1.18-.293.326-.64.58-1.035.763-.17.082-.346.147-.524.197.132.047.247.103.343.16.194.098.37.242.533.436.165.19.33.44.498.75.167.308.373.703.612 1.182.12.24.23.434.325.58.1.143.2.26.31.35.107.092.223.157.344.2.12.043.27.066.452.077 0 .495-.066.97-.198 1.428-.95 0-1.8.014-2.547.035-.745.023-1.272.062-1.587.107-.145-.424-.297-.87-.46-1.354-.163-.48-.34-.948-.532-1.405-.132-.338-.25-.625-.35-.857-.105-.234-.212-.436-.327-.605-.114-.168-.238-.313-.37-.434-.07-.063-.15-.123-.234-.183h-.69v1.117c0 .496.016.885.046 1.176.03.29.08.51.155.66.07.15.164.246.272.29.107.04.246.066.416.076.045.136.078.337.1.606.017.27.025.537.025.803-.17-.013-.387-.02-.66-.025l-.856-.018c-.3-.006-.596-.007-.883-.007h-.76c-.49 0-.976 0-1.45.007-.477.007-.925.02-1.347.045 0-.314.014-.583.036-.812.024-.23.062-.428.107-.596.24-.014.44-.05.597-.107.158-.062.28-.165.372-.31.09-.143.15-.345.18-.596.03-.253.044-.588.044-1.01v-5.524c0-.407-.014-.733-.044-.976-.03-.24-.09-.43-.18-.568-.09-.137-.213-.235-.372-.3-.156-.057-.36-.104-.612-.143-.025-.084-.046-.193-.063-.323-.018-.136-.028-.27-.036-.408l-.018-.387c-.007-.12-.012-.213-.012-.272.362.024.813.044 1.355.054.54.012 1.124.016 1.748.016zm2.6 1.318c-.265 0-.516.043-.758.125v4.44c.12.025.21.037.27.037.098.014.188.02.272.02.254 0 .505-.045.758-.136.252-.09.474-.223.667-.402.193-.182.35-.412.47-.688.12-.277.182-.604.182-.975 0-.78-.17-1.38-.506-1.797-.34-.413-.79-.622-1.356-.622zm15.958-1.317c.24-.06.462-.096.66-.102.198-.004.436-.008.713-.008l4.005 8.79c.218.472.398.845.542 1.12.144.278.272.49.39.643.112.15.22.254.322.31.103.053.22.085.352.097.05.16.084.36.108.605.023.247.036.515.036.804-.18-.013-.402-.022-.668-.027l-.803-.02c-.27-.004-.533-.007-.787-.007H85.26c-.277 0-.575.003-.894.007-.318.008-.63.016-.93.02-.302.008-.535.016-.702.028 0-.337.01-.61.036-.82.023-.213.06-.406.107-.586.397-.1.636-.248.714-.453.078-.202.026-.51-.152-.92l-.127-.27c-.696.013-1.407.03-2.13.054-.65.025-1.31.067-1.986.127l-.016.073c-.062.132-.094.274-.102.423-.007.153.02.294.074.428.054.135.137.248.252.344.115.097.268.162.46.197.048.193.085.402.108.635.023.228.036.486.036.774-.106-.015-.25-.022-.425-.026l-.558-.02c-.198-.007-.4-.01-.605-.01h-.52c-.302 0-.62.003-.957.01s-.597.02-.778.044c0-.276.013-.522.036-.737.024-.22.072-.44.145-.67.145-.025.272-.07.388-.137s.227-.164.336-.3c.107-.13.22-.31.334-.53s.244-.508.39-.855l3.824-9.032h.002zm-1.894 8.034h3.07l-.67-1.535c-.323-.725-.582-1.402-.775-2.04-.048-.146-.098-.298-.144-.453l-.145.47c-.194.623-.435 1.3-.723 2.02l-.613 1.537zm21.103-8.09c.12.015.284.02.488.026.204.008.422.014.648.018.23.008.453.012.67.012h.56c.312 0 .655-.004 1.03-.012.37-.006.666-.02.88-.04 0 .225 0 .46-.007.7-.008.242-.047.476-.118.703-.24.038-.434.09-.578.163-.146.072-.26.2-.345.383-.086.18-.14.432-.172.756-.027.326-.044.754-.044 1.283v8.27c-.24.07-.492.113-.75.134-.258.016-.557.025-.894.025l-6.156-8.32v4.223c0 .52.02.938.056 1.256.035.318.104.57.216.758.107.188.255.32.44.397.188.08.425.137.714.172.06.205.097.43.107.676.01.248.017.492.017.73-.135-.01-.29-.02-.47-.025l-.576-.02c-.205-.007-.407-.008-.612-.008h-.523c-.158 0-.345-.003-.567-.01-.224-.008-.448-.01-.678-.01h-.63c-.194 0-.345.006-.453.018 0-.29.01-.535.027-.74.017-.204.058-.407.118-.613.274-.035.507-.093.693-.17.187-.078.337-.212.452-.398.113-.188.194-.438.244-.76.048-.316.073-.733.073-1.256v-6.062l-.253-.345c-.098-.17-.225-.284-.39-.354-.16-.063-.436-.114-.82-.15-.06-.206-.1-.423-.118-.65-.018-.23-.026-.48-.026-.76.12.015.283.022.487.028l.66.016c.233.007.465.01.693.01h1.05c.19 0 .38-.003.565-.01.19-.008.37-.014.544-.016.17-.01.32-.016.44-.027l4.964 6.843v-2.854c0-.516-.02-.935-.053-1.252-.036-.32-.11-.572-.227-.762-.115-.186-.27-.316-.47-.396-.196-.078-.46-.137-.784-.172-.06-.203-.095-.438-.106-.703-.008-.265-.013-.498-.013-.705zm8.99 0c.192.015.42.02.687.026.264.008.545.014.847.018.3.008.612.012.94.012h.955c.287 0 .612-.006.976-.016.36-.017.783-.02 1.264-.02.878 0 1.71.07 2.5.217.79.146 1.48.433 2.064.856.592.43 1.062 1.02 1.412 1.777.348.758.523 1.75.523 2.978 0 .977-.122 1.813-.362 2.512-.24.698-.556 1.28-.946 1.75-.392.47-.832.85-1.317 1.14-.487.288-.976.505-1.463.647-.487.144-.95.24-1.39.287-.44.048-.81.073-1.11.073-.315 0-.74.003-1.282.008-.54.008-1.097.016-1.67.02-.57.006-1.1.012-1.588.02-.49.007-.834.01-1.04.01 0-.265.013-.525.036-.775.024-.256.06-.463.107-.635.243-.013.44-.047.6-.105.154-.06.277-.164.367-.31.09-.145.15-.343.18-.596.03-.255.045-.588.045-1.01v-5.487c0-.408-.015-.732-.044-.975-.028-.24-.09-.432-.18-.568-.09-.136-.215-.238-.37-.3-.158-.058-.36-.106-.614-.142-.047-.184-.082-.41-.1-.688-.02-.277-.028-.517-.027-.722zm4.946 8.792c0 .423.022.77.065 1.04.04.27.116.483.224.64.107.158.253.27.434.335.18.068.408.102.686.102.134 0 .322-.043.57-.127.246-.082.487-.285.72-.604.236-.315.44-.79.614-1.415s.262-1.485.262-2.584c0-.96-.08-1.75-.234-2.372-.156-.62-.367-1.11-.63-1.472-.268-.36-.57-.61-.912-.75-.346-.137-.703-.207-1.076-.207-.266 0-.505.047-.72.143v7.278l-.003-.004zm13.344-5.397c0-.408-.017-.734-.045-.977-.03-.24-.084-.43-.164-.568-.08-.137-.196-.238-.353-.298-.157-.058-.36-.106-.612-.144-.047-.18-.087-.4-.117-.66-.03-.258-.045-.508-.045-.748.145.014.354.02.63.027l.886.016c.315.006.62.01.922.01h1.535c.278 0 .558-.004.84-.01.283-.008.552-.014.812-.02.258-.007.478-.015.658-.025 0 .24-.007.475-.02.703-.01.228-.06.463-.143.703-.252.02-.454.063-.604.124s-.27.16-.353.3c-.084.136-.143.33-.17.575-.03.247-.046.575-.046.983v5.486c0 .423.015.758.045 1.01.026.252.088.452.18.597.09.145.213.247.37.307.156.062.354.098.596.106.047.168.083.388.107.65.023.266.037.52.037.76-.277-.022-.667-.04-1.175-.046-.507-.006-1.07-.008-1.696-.008s-1.245.002-1.86.008c-.613.008-1.132.02-1.553.046 0-.22.018-.463.054-.74.037-.276.08-.5.127-.67.24-.013.438-.047.587-.106.15-.062.27-.164.353-.31.086-.144.142-.342.172-.595.026-.255.043-.59.043-1.013v-5.485.007zm17.384-3.397c.118.014.28.02.487.027.204.008.42.014.647.018.23.007.45.01.668.01h.56c.313 0 .657-.003 1.03-.01.372-.006.67-.02.886-.043 0 .227-.004.463-.01.703-.008.242-.046.476-.117.703-.24.036-.436.09-.58.163-.146.073-.257.2-.34.38-.087.18-.146.434-.174.76-.03.323-.043.753-.043 1.28v8.27c-.243.07-.493.114-.752.135-.257.017-.556.026-.892.026l-6.156-8.323v4.227c0 .52.017.937.053 1.256.037.316.108.57.218.758.106.19.254.32.44.4.188.078.426.136.714.17.06.206.098.432.108.677.012.248.018.492.018.73-.133-.012-.29-.02-.468-.025l-.58-.02c-.203-.007-.408-.01-.612-.01h-.522c-.157 0-.345-.003-.568-.008-.223-.01-.447-.01-.676-.01h-.63c-.195 0-.345.006-.453.017 0-.29.008-.534.026-.737.017-.206.056-.41.116-.614.277-.036.51-.095.695-.172.19-.08.338-.21.453-.397.115-.187.195-.437.244-.76.048-.316.072-.733.072-1.255v-6.063l-.253-.345c-.098-.166-.227-.283-.388-.35-.164-.064-.438-.115-.822-.154-.06-.203-.102-.42-.117-.648-.018-.23-.026-.48-.026-.758.12.013.282.02.488.025l.658.018c.234.006.466.01.695.01h1.047c.194 0 .38-.004.568-.01.188-.008.37-.014.542-.018.174-.008.323-.014.442-.025l4.964 6.842v-2.855c0-.52-.02-.938-.053-1.255-.036-.317-.11-.57-.228-.76-.115-.187-.27-.317-.47-.396-.196-.078-.458-.137-.784-.172-.06-.203-.097-.438-.108-.703-.013-.267-.02-.5-.02-.704h-.003l.006-.003zm16.77 8.992c0-.266-.02-.483-.055-.65-.036-.168-.1-.305-.188-.406-.09-.105-.222-.175-.388-.218-.17-.044-.38-.07-.633-.082-.072-.372-.107-.834-.107-1.39.35.024.748.04 1.2.044.45.006.874.01 1.27.01h1.265c.48 0 .914-.014 1.298-.036 0 .24-.006.476-.016.704-.014.23-.044.45-.09.667-.314.023-.502.107-.57.253-.064.144-.102.415-.102.812v.435c0 .24.01.446.02.612.014.17.03.322.054.46.023.14.054.273.09.4.035.126.084.26.144.405-.552.408-1.226.745-2.02 1.01-.794.266-1.65.398-2.563.398-.975 0-1.85-.155-2.627-.46-.775-.31-1.436-.74-1.977-1.3s-.962-1.23-1.256-2.015c-.293-.78-.44-1.644-.44-2.582 0-1.024.17-1.922.515-2.698.345-.777.812-1.42 1.398-1.93.588-.512 1.268-.897 2.028-1.154.765-.26 1.574-.39 2.432-.39.782 0 1.54.097 2.273.287.732.192 1.365.41 1.896.65-.074.42-.126.866-.155 1.335-.03.47-.045.957-.045 1.463-.266.135-.56.208-.884.227-.324.02-.625.024-.903.024-.047-.948-.267-1.616-.658-2-.392-.388-.938-.58-1.633-.58-.48 0-.89.124-1.22.372-.33.246-.6.57-.803.976-.205.403-.353.86-.44 1.38-.092.52-.137 1.053-.137 1.603 0 .784.065 1.505.2 2.16.13.656.322 1.22.574 1.69.256.468.56.835.91 1.1.355.266.75.396 1.186.396.154 0 .274-.007.36-.018.083-.013.162-.03.232-.054.168-.06.305-.173.406-.344.102-.167.152-.488.152-.957v-.612l.006.005zm15.125-8.992c.146.014.36.02.645.027s.58.014.884.018c.308.007.6.01.877.01h1.227c.265 0 .55-.003.85-.01.3-.006.6-.012.894-.016.295-.008.553-.015.77-.027 0 .254-.01.496-.028.73-.017.234-.056.465-.115.678-.276.037-.494.096-.65.172-.157.078-.26.193-.314.346-.054.15-.058.355-.01.612.048.26.144.586.288.983.242.687.49 1.427.74 2.224.134.42.277.876.433 1.368l2.456-7.06c.228-.06.478-.1.748-.116.27-.018.524-.025.768-.025.324.78.63 1.522.912 2.22.28.698.558 1.39.83 2.075.272.688.544 1.386.822 2.094.13.337.266.688.396 1.047l.974-3.357c.134-.457.213-.84.243-1.146.03-.31.008-.562-.07-.76-.08-.198-.21-.35-.39-.453-.182-.103-.415-.18-.704-.226-.085-.202-.138-.434-.155-.687-.017-.254-.026-.493-.026-.723.12.014.27.02.45.026l.57.02c.197.006.394.01.585.01h1.03c.18 0 .36-.004.542-.01.18-.007.354-.015.522-.017.166-.01.312-.017.434-.028 0 .24-.008.48-.02.714-.013.233-.06.465-.145.694-.17.06-.316.142-.442.244-.126.104-.247.245-.36.434-.113.186-.225.433-.333.74-.107.31-.23.695-.36 1.164l-2.33 8.27c-.098.023-.223.048-.38.072-.155.022-.323.043-.504.055-.182.012-.365.02-.552.024-.188.004-.36.01-.518.01-.273-.745-.545-1.452-.802-2.122-.258-.667-.52-1.327-.784-1.984-.266-.655-.536-1.32-.812-1.993-.146-.36-.296-.73-.45-1.103l-2.44 7.077c-.12.022-.265.044-.432.063-.168.016-.343.032-.518.045-.173.012-.345.018-.515.018h-.416c-.504-1.626-.995-3.178-1.47-4.656-.477-1.48-.906-2.794-1.292-3.936-.18-.53-.327-.947-.44-1.256-.115-.31-.22-.543-.314-.703-.098-.162-.194-.27-.3-.315-.103-.05-.225-.078-.37-.09-.06-.218-.095-.45-.106-.696-.013-.246-.02-.502-.02-.766v-.006h-.005zm21.846 6.1c0-.96.15-1.824.458-2.587.31-.763.733-1.415 1.282-1.95.548-.537 1.203-.947 1.968-1.236.764-.29 1.603-.435 2.52-.435.937 0 1.793.14 2.56.423.772.284 1.432.684 1.98 1.2s.97 1.147 1.266 1.887c.295.74.44 1.562.44 2.464 0 .976-.146 1.863-.44 2.665-.295.8-.715 1.49-1.256 2.064-.54.58-1.196 1.026-1.968 1.346-.77.32-1.632.48-2.584.48-.973 0-1.846-.155-2.616-.462-.77-.31-1.423-.737-1.958-1.293-.534-.552-.942-1.218-1.23-1.993-.28-.775-.423-1.633-.423-2.573zm3.7-.428c0 .72.055 1.406.164 2.057.108.65.27 1.22.494 1.707.225.487.507.87.85 1.153.344.283.757.424 1.236.424.373 0 .704-.11.993-.334.29-.223.535-.542.73-.957.202-.416.353-.916.455-1.508.103-.59.153-1.244.153-1.97 0-.684-.062-1.33-.19-1.937-.125-.607-.31-1.137-.55-1.588-.242-.45-.532-.81-.875-1.076-.346-.263-.733-.396-1.165-.396-.734 0-1.3.383-1.696 1.147-.4.765-.6 1.858-.6 3.276v.002zm23.324-5.672c0 .23.013.485.028.77.02.28.044.57.08.865.035.294.074.576.117.85.042.272.092.514.152.73-.243.098-.503.175-.776.234-.277.062-.627.09-1.047.09-.063-.324-.142-.62-.235-.885-.097-.262-.237-.486-.425-.668-.188-.182-.427-.32-.723-.424-.295-.104-.665-.155-1.108-.155h-.886v4.1c.3 0 .545-.022.73-.07.188-.05.336-.12.443-.22.106-.098.187-.225.233-.387.048-.166.07-.365.07-.605.206-.087.455-.143.74-.17.29-.03.573-.047.85-.047-.02.29-.042.6-.052.934-.013.33-.018.726-.018 1.18 0 .505.008.925.018 1.255.012.33.03.63.054.894-.337 0-.63-.012-.875-.036-.25-.024-.472-.07-.677-.144-.05-.494-.178-.82-.387-.982-.21-.165-.59-.247-1.13-.247v1.933c0 .424.02.77.063 1.037.043.272.116.486.227.643.106.158.252.27.433.335.182.067.41.1.686.1h.31c.613 0 1.1-.19 1.45-.577.356-.387.654-1.01.895-1.88.396.038.765.113 1.103.228.337.115.583.244.74.39-.136.42-.25.916-.346 1.488-.096.57-.167 1.15-.216 1.742-.266 0-.592-.005-.974-.01l-1.22-.02c-.43-.004-.863-.007-1.308-.007h-1.213c-.312 0-.738.003-1.28.007-.54.01-1.098.015-1.668.02l-1.59.02c-.488.008-.833.01-1.036.01 0-.266.012-.522.034-.776.025-.254.062-.463.108-.633.24-.014.437-.048.595-.106.157-.06.28-.165.37-.31.09-.146.15-.344.182-.597.027-.255.044-.588.044-1.01v-5.487c0-.407-.015-.733-.045-.976-.03-.24-.092-.43-.182-.567-.09-.136-.214-.237-.37-.3-.16-.06-.362-.105-.614-.143-.046-.183-.08-.408-.1-.688-.02-.277-.025-.518-.025-.723.263.013.6.02 1 .026.404.006.827.012 1.272.02.443.006.883.01 1.317.01h2.94c.52 0 .974-.004 1.363-.01l1.037-.018c.306-.01.58-.016.832-.027v-.005h.002zm9.93-.107c.78 0 1.474.066 2.076.197.6.134 1.06.287 1.37.47 0 .543.01 1.075.027 1.6.016.522.05.94.098 1.255-.253.146-.576.242-.976.297-.397.055-.745.082-1.047.082-.073-.492-.165-.896-.28-1.217-.114-.32-.254-.568-.415-.75s-.345-.31-.552-.38c-.206-.07-.436-.105-.686-.105-.315 0-.6.086-.858.26-.258.176-.387.456-.387.84 0 .386.146.703.44.958.296.254.66.487 1.103.703.438.214.917.436 1.435.66.52.222.996.494 1.438.82.44.326.81.73 1.103 1.21.294.483.442 1.085.442 1.807 0 .578-.12 1.1-.353 1.57-.234.468-.562.872-.984 1.21s-.916.596-1.49.775c-.57.18-1.2.27-1.885.27-.47 0-.89-.016-1.256-.053-.37-.037-.703-.094-1.012-.172-.307-.076-.604-.18-.892-.307-.286-.128-.597-.28-.923-.46.1-.507.162-1.022.192-1.545.03-.52.044-1.03.044-1.523.35-.097.71-.156 1.084-.183.372-.02.733-.035 1.083-.035.035.564.088 1.03.154 1.39.065.36.17.645.307.852.14.202.315.348.532.435.217.082.5.125.85.125.443 0 .815-.11 1.11-.334.297-.224.44-.52.44-.895 0-.36-.135-.655-.403-.885-.272-.23-.614-.44-1.03-.642-.417-.198-.86-.41-1.334-.642-.48-.227-.922-.518-1.338-.865-.415-.35-.758-.787-1.03-1.31-.27-.524-.403-1.188-.403-1.993 0-.58.108-1.084.332-1.52.223-.433.523-.792.903-1.08.377-.292.824-.512 1.332-.66.513-.155 1.057-.23 1.637-.23z"/></svg>